<?xml version="1.0" standalone="no"?>
<!DOCTYPE svg PUBLIC "-//W3C//DTD SVG 20010904//EN"
 "http://www.w3.org/TR/2001/REC-SVG-20010904/DTD/svg10.dtd">
<svg version="1.0" xmlns="http://www.w3.org/2000/svg"
 width="355.000000pt" height="355.000000pt" viewBox="0 0 355.000000 355.000000"
 preserveAspectRatio="xMidYMid meet">

<g transform="translate(0.000000,355.000000) scale(0.100000,-0.100000)"
fill="#000000" stroke="none">
<path d="M1255 3516 c-45 -19 -100 -86 -125 -152 -18 -46 -23 -79 -23 -149 0
-49 5 -103 12 -119 11 -27 8 -31 -78 -121 -245 -257 -371 -576 -331 -838 12
-80 45 -189 74 -246 l17 -32 -81 -86 c-313 -330 -401 -702 -246 -1037 75 -164
236 -345 403 -456 437 -289 1035 -339 1542 -130 71 29 71 29 104 10 88 -51
205 -62 308 -30 114 35 189 114 189 199 0 42 -31 101 -72 137 l-33 29 49 65
c64 85 131 224 157 330 18 71 21 104 17 215 -4 112 -9 143 -36 222 -58 172
-136 296 -275 440 -67 69 -87 96 -79 105 21 26 63 144 78 222 21 102 14 260
-16 366 -48 171 -171 376 -313 522 l-65 66 15 53 c11 36 14 79 11 140 -4 76
-9 97 -39 155 -20 39 -50 80 -72 98 -35 28 -46 31 -106 31 -59 0 -72 -4 -104
-28 -42 -31 -94 -115 -103 -164 -7 -38 -7 -38 -88 -16 -80 21 -259 22 -344 1
l-62 -15 -7 26 c-17 71 -79 158 -135 187 -33 17 -103 18 -143 0z m773 -675
c191 -56 378 -189 472 -337 36 -58 37 -83 6 -132 -104 -165 -291 -297 -501
-354 -115 -31 -345 -31 -460 1 -95 25 -202 74 -282 129 -105 72 -243 234 -243
287 0 55 166 239 273 303 82 49 202 99 282 116 104 23 355 16 453 -13z"/>
<path d="M1503 2730 c-130 -46 -255 -134 -332 -233 l-45 -58 19 -35 c11 -20
55 -69 98 -110 60 -56 102 -86 171 -119 50 -24 105 -47 121 -51 29 -7 29 -6
-18 40 -29 27 -61 74 -80 114 -28 59 -32 77 -31 152 1 117 28 186 105 262 31
32 54 58 51 57 -4 0 -31 -9 -59 -19z"/>
<path d="M2031 2704 c29 -28 62 -73 82 -113 29 -60 32 -73 32 -161 -1 -84 -4
-102 -30 -155 -16 -33 -51 -82 -78 -109 -45 -45 -47 -48 -20 -42 42 10 167 71
216 105 57 39 126 107 166 161 l31 42 -33 45 c-76 107 -213 205 -354 254 -31
10 -57 19 -59 19 -2 0 19 -21 47 -46z"/>
<path d="M1718 2535 c-60 -34 -76 -122 -33 -174 37 -43 83 -56 132 -36 112 45
92 210 -27 221 -29 3 -55 -1 -72 -11z"/>
</g>
</svg>
