<?xml version="1.0" encoding="utf-8"?>
<!-- Generator: Adobe Illustrator 21.1.0, SVG Export Plug-In . SVG Version: 6.00 Build 0)  -->
<svg version="1.1" id="Layer_1" xmlns="http://www.w3.org/2000/svg" xmlns:xlink="http://www.w3.org/1999/xlink" x="0px" y="0px"
	 viewBox="0 0 360.4 360.5" style="enable-background:new 0 0 360.4 360.5;" xml:space="preserve">
<style type="text/css">
	.st0{fill:#242424;}
	.st1{fill:#B548DC;}
	.st2{fill:#FB53A2;}
	.st3{fill:#7D4ADD;}
	.st4{fill:#D5FCC3;}
	.st5{fill:#8C48DE;}
	.st6{fill:#1E9BE2;}
	.st7{fill:#6F5BCE;}
	.st8{fill:#6146C1;}
	.st9{fill:#9A48DD;}
	.st10{fill:#A647DC;}
	.st11{fill:#90050D;}
	.st12{fill:#FE8B06;}
	.st13{fill:#725ECE;}
	.st14{fill:#FC5805;}
	.st15{fill:#FD6A04;}
	.st16{fill:#C348DB;}
	.st17{fill:#6468D4;}
	.st18{fill:#3AC0BA;}
	.st19{fill:#301C92;}
	.st20{fill:#6B4EC7;}
	.st21{fill:#FD8506;}
	.st22{fill:#4C32AE;}
	.st23{fill:#39239C;}
	.st24{fill:#BF48DC;}
	.st25{fill:#28A6DD;}
	.st26{fill:#5A3FBB;}
	.st27{fill:#2EABD6;}
	.st28{fill:#442AA5;}
	.st29{fill:#3AC4AE;}
	.st30{fill:#37BAC4;}
	.st31{fill:#E5F4A2;}
	.st32{fill:#32B5CF;}
	.st33{fill:#FA3B9C;}
	.st34{fill:#F9E260;}
	.st35{fill:#FDB112;}
	.st36{fill:#FDF3D1;}
	.st37{fill:#3ECC9E;}
	.st38{fill:#108CE8;}
	.st39{fill:#CD072F;}
	.st40{fill:#FDDC4D;}
	.st41{fill:#42D68C;}
	.st42{fill:#4ADB7A;}
	.st43{fill:#087EE5;}
	.st44{fill:#F9450B;}
	.st45{fill:#FBC614;}
	.st46{fill:#F8308A;}
	.st47{fill:#CAF8B3;}
	.st48{fill:#C9FAB3;}
	.st49{fill:#F22172;}
	.st50{fill:#71EE7F;}
	.st51{fill:#1F1F21;}
	.st52{fill:#2A198A;}
	.st53{fill:#C6092D;}
	.st54{fill:#AEF9A1;}
	.st55{fill:#8EF58C;}
	.st56{fill:#5AE97B;}
	.st57{fill:#202122;}
	.st58{fill:#1D211C;}
	.st59{fill:#F661A4;}
	.st60{fill:#0665CD;}
	.st61{fill:#251F1B;}
	.st62{fill:#23211F;}
	.st63{fill:#FDDE55;}
	.st64{fill:#E1154F;}
	.st65{fill:#1D2219;}
	.st66{fill:#6F40B4;}
	.st67{fill:#1E2022;}
	.st68{fill:#F8DF28;}
	.st69{fill:#F7E113;}
	.st70{fill:#1B2119;}
	.st71{fill:#1D2224;}
	.st72{fill:#066AD2;}
	.st73{fill:#241E1C;}
	.st74{fill:#1C211A;}
	.st75{fill:#232324;}
	.st76{fill:#171C25;}
	.st77{fill:#646FDB;}
	.st78{fill:#F6DF16;}
	.st79{fill:#9E4AE3;}
	.st80{fill:#171A25;}
	.st81{fill:#1A2224;}
	.st82{fill:#35C5C7;}
	.st83{fill:#38229A;}
	.st84{fill:#222524;}
	.st85{fill:#0B0B19;}
	.st86{fill:#F5E94F;}
	.st87{fill:#1D1D1A;}
	.st88{fill:#697E5B;}
	.st89{fill:#241F1B;}
	.st90{fill:#192014;}
	.st91{fill:#23ADEB;}
	.st92{fill:#19C0F6;}
	.st93{fill:#F6E950;}
	.st94{fill:#172017;}
	.st95{fill:#231E1A;}
	.st96{fill:#182324;}
	.st97{fill:#151E0E;}
	.st98{fill:#0B0815;}
	.st99{fill:#272215;}
	.st100{fill:#1A2119;}
	.st101{fill:#222623;}
	.st102{fill:#4136B7;}
	.st103{fill:#C749DD;}
	.st104{fill:#FB659B;}
	.st105{fill:#FA488E;}
	.st106{fill:#FB5E9F;}
	.st107{fill:#A051F5;}
	.st108{fill:#884CE1;}
	.st109{fill:#834FE9;}
	.st110{fill:#FEF6E2;}
	.st111{fill:#FCF5DD;}
	.st112{fill:#A14BE6;}
	.st113{fill:#1687E0;}
	.st114{fill:#2DB4F0;}
	.st115{fill:#37B1EC;}
	.st116{fill:#6253CA;}
	.st117{fill:#D849DA;}
	.st118{fill:#5038B8;}
	.st119{fill:#514CC5;}
	.st120{fill:#4738B8;}
	.st121{fill:#E153D8;}
	.st122{fill:#D249DA;}
	.st123{fill:#E357D6;}
	.st124{fill:#CD48DB;}
	.st125{fill:#C848DB;}
	.st126{fill:#E862DE;}
	.st127{fill:#FED092;}
	.st128{fill:#5D5BCE;}
	.st129{fill:#FC4A0D;}
	.st130{fill:#FEBC85;}
	.st131{fill:#5471D8;}
	.st132{fill:#5661D1;}
	.st133{fill:#FACABC;}
	.st134{fill:#FAD0BA;}
	.st135{fill:#F7AAC3;}
	.st136{fill:#F7A3C4;}
	.st137{fill:#1FC4F4;}
	.st138{fill:#35B2E5;}
	.st139{fill:#FAD5BA;}
	.st140{fill:#F9C4BD;}
	.st141{fill:#F9C0BE;}
	.st142{fill:#FAF3B1;}
	.st143{fill:#F43577;}
	.st144{fill:#FEC536;}
	.st145{fill:#FDF6BF;}
	.st146{fill:#FEC435;}
	.st147{fill:#FBDABA;}
	.st148{fill:#EC72D0;}
	.st149{fill:#E968D3;}
	.st150{fill:#EC2665;}
	.st151{fill:#FDECCF;}
	.st152{fill:#F6D12C;}
	.st153{fill:#FBE1C0;}
	.st154{fill:#0571DB;}
	.st155{fill:#3D9CE8;}
	.st156{fill:#FE998C;}
	.st157{fill:#FD8991;}
	.st158{fill:#FC8497;}
	.st159{fill:#F62F7A;}
	.st160{fill:#FCE6C6;}
	.st161{fill:#FC7898;}
	.st162{fill:#055EC5;}
	.st163{fill:#0566D1;}
	.st164{fill:#FC6481;}
	.st165{fill:#FC5472;}
	.st166{fill:#F12C6A;}
	.st167{fill:#FDEACE;}
	.st168{fill:#34A6EA;}
	.st169{fill:#F28DCB;}
	.st170{fill:#F597C7;}
	.st171{fill:#4F4EC6;}
	.st172{fill:#DD4BD9;}
	.st173{fill:#E54DDA;}
	.st174{fill:#DF4ED9;}
	.st175{fill:#E55CD5;}
	.st176{fill:#4667D3;}
	.st177{fill:#E94EDA;}
	.st178{fill:#E762D4;}
	.st179{fill:#FEA686;}
	.st180{fill:#FEA57A;}
	.st181{fill:#497EDE;}
	.st182{fill:#FE7676;}
	.st183{fill:#F8B1C2;}
	.st184{fill:#F59EC7;}
	.st185{fill:#F8B7C1;}
	.st186{fill:#FE907E;}
	.st187{fill:#FBDFBF;}
	.st188{fill:#F9BCC0;}
	.st189{fill:#FACAC3;}
	.st190{fill:#E91959;}
	.st191{fill:#FBDEBA;}
	.st192{fill:#EE79CE;}
	.st193{fill:#EA6CD1;}
	.st194{fill:#3F8AE2;}
	.st195{fill:#F081CD;}
	.st196{fill:#1A95E5;}
	.st197{fill:#FD7A84;}
	.st198{fill:#FEAA91;}
	.st199{fill:#4176DA;}
	.st200{fill:#3E79DB;}
	.st201{fill:#1886DE;}
</style>
<path class="st0" d="M179.9,360.4c-28.2,0-56.3,0.1-84.5-0.1c-11.8-0.1-23.7-0.7-35.2-3.5c-34.2-8.3-56.6-36.2-59.1-73.6
	c-0.7-11-1.1-22-1.1-33c0.1-53.2,0-106.3,0.3-159.5c0.1-13.7,1.1-27.4,6.4-40.3c12.2-29.8,35.1-45.6,66.7-49
	c9.4-1,18.9-1.5,28.4-1.5C156,0.1,210.2,0,264.3,0.1c12,0,24,0.7,35.7,3.5c33.4,8,55.9,34.9,59,70.9c0.7,8.1,1.2,16.3,1.2,24.4
	c0.1,56.8,0.1,113.7-0.2,170.5c-0.1,15.5-1.4,31.1-8.4,45.3c-13.2,27.1-35.4,41.2-64.9,44.2c-10.1,1-20.3,1.5-30.4,1.4
	C230.9,360.4,205.4,360.4,179.9,360.4C179.9,360.4,179.9,360.4,179.9,360.4z"/>
<path class="st1" d="M295.2,146.2c-2.7,4.5-5.2,9.2-9.8,12.1c-0.6,1-1.3,2.3-2.6,2c-1.7-0.4-1.3-2.1-1.3-3.3
	c-0.2-7.3,1.2-14.5,0.2-21.8c-0.3-2-0.7-3.9-1.8-5.6c-0.5-2.1,1.3-3.2,2.2-4.8c0.7-1.1,1.6-2.1,2.5-3.1c1.1-1.1,2.1-2.2,3.1-3.4
	c1.1-0.9,2.1-1.8,3.7-1.1c1.5,8.6,4.4,17,3,25.9C294.2,144.3,295.8,144.9,295.2,146.2z"/>
<path class="st2" d="M223.3,206.3c-1,0.7-2,1.5-3,2.2c-0.9,0.8-1.4,2.3-3,1.8c-5.7,2.3-11.4,4.5-17.1,6.8c-3.5-0.3-6.9,2.2-10.4,0.2
	c-1.1-2.7-4.9-3.5-5-6.9c-0.2-1.5,0.2-2.8,0.8-4.1c5.3-3.1,11.3-2.8,17-3.6c2.6-0.4,5.2-0.1,7.9-0.3
	C215.2,202.4,218.6,206.3,223.3,206.3z"/>
<path class="st3" d="M315,103.2c-0.2,0.7-0.4,1.4-0.7,2.1c0.5,1,0.5,1.8-0.8,2.2c-2.4-0.9-3.9-2.8-4.1-5.2c-0.2-2.6-1.9-4.5-2.6-6.9
	c0.4-4.3,3.2-8.1,2.5-12.6c-0.1-0.7,0-1.5,0.1-2.2c2-5.4,2.3-11.3,4.7-16.5c0.7-0.4,1.1,0.2,1.5,0.7c-0.1-1-0.9-1.6-1.1-2.5
	c-0.2-0.7-0.2-1.4,0-2.1c0.3-0.9,0.6-1.8,0.9-2.8c1.3-2.7,0.6-6.1,3-8.5c1.4,0.3,1.3,1.6,1.6,2.6c0.1,6,0.9,12,0.6,18.1
	c-0.7,2.5-0.4,5.1-0.5,7.6c0,1.4,0.1,2.9-1.1,4c-0.9,1.9-1,3.9-0.9,6c1,1.5-0.4,3,0,4.6C317.4,95.7,316.9,99.6,315,103.2z"/>
<path class="st4" d="M50.3,255.4c0.6-1.7,1.3-3.4,1.9-5.2c1.5-7.8,5.9-14.4,9.4-21.3c2.7,1.2,4.7,3.3,6.3,5.8
	c0.1,2.4-1.4,4.1-2.5,5.9c-4.2,6.8-7.4,14.2-10.3,21.6c-0.6,1.3-0.8,2.8-2.4,3.3c-0.8,0.2-0.4-1.2-1-0.8c-2.5,1.9-4,1.1-4.8-1.7
	C48.3,260.5,48.4,257.6,50.3,255.4z"/>
<path class="st5" d="M307.2,95.2c4.3,2.9,2.6,8.8,6,12.1c1,4.2-1,7.5-3.1,10.9c-0.6,1.1-1.3,2.1-1.9,3.2c-4.8-1.3-7-4.5-6.7-9.4
	c0.1-2.1-1.6-3.6-1.3-5.6c0.3-1.8,1.4-3.3,1.2-5.2c0-0.5,0.1-0.9,0.2-1.4c0.9-2.3,1.1-5.1,4.1-5.9C306.6,94,307,94.5,307.2,95.2z"/>
<path class="st6" d="M158.4,156.6c2-0.2,4.1-0.3,5.8-1.5c0.6-0.5,1.2-0.7,1.9-0.7c5.1,0.8,2.5,5,3.5,7.7c-0.4,1.6-1.3,2.9-3,3.2
	c-1.9,0.4,0.3,0.8,0,1.2c0.1,0.7,0,1.3-0.5,1.8c-4.1,0.7-7.7,2.7-11.7,3.6c-4.2-0.2-4.4-3.3-4.2-6.4c0.1-1.6,0.6-3.2,0.8-4.8
	c0.1-0.7,0.3-1.4,0.6-2.1C153.6,157,156,156.8,158.4,156.6z"/>
<path class="st7" d="M260.2,121.1c0.1-0.6,0.1-1.2,0.2-1.8c1.2-1.6,2.5-3.1,4.9-2.2c1.5-0.7,2.2-2.6,4-2.8c2.9,6.5-2.4,9.7-5.7,13.4
	c-3.3,3.7-7.5,6.5-11.7,9.3c-2.2,2.6-5.4,3.7-8.4,5c-1.1,0.5-2.3,0.8-2.9-0.7c-0.3-1-0.1-2.1,0.6-2.8
	C247.1,132.1,251.7,124.4,260.2,121.1z"/>
<path class="st8" d="M277.2,109.1c1.9-1.4,1.8-4.7,4.9-4.9c2.1,1.8,2.1,1.8,1.5,4.5c-1.4,5.8-4.6,10.5-8.6,14.8
	c-0.9,0.9-2.2,1.5-1.9,3.1c-0.7,3.4-3.8,4.8-6.2,6.6c-2.8,2.2-5.9,4-8.5,6.5c-0.4,0.5-0.9,0.9-1.5,1.3c-1.3,0.7-2.4,1.7-3.2,3
	c-1.2,1.3-2.7,1.7-4.4,1.7c-1.5-0.4-2.7-1-3.4-2.4c0.8-3.3,4.6-3.9,6-6.6c6.6-4.1,12.6-9,18.1-14.5
	C273.6,118.5,276.1,114.1,277.2,109.1z"/>
<path class="st9" d="M301.2,106.2c1,2.8,1.8,5.6,1.7,8.8c-0.1,3.5,4.4,3.6,5.4,6.5c-0.8,3.2-2,6.3-4,9c-2.3,0.6-1.6,5-5.2,4.2
	c-3.2-1.3-1.3-4.5-1.4-6.1c-0.3-6-4.2-11.2-3.1-17.4c0.6-2.3,1.9-4,4-5.2C299.4,106.8,300.4,105.8,301.2,106.2z"/>
<path class="st10" d="M295.4,111.2c1.2,2.6-2.1,6.9,3.1,8.1c0.2,0.1,0.3,2.2,0,3.2c-0.8,2.5-1.8,4.9,1.2,6.9c0.5,0.3-1.9,3-0.5,4.8
	c1.5,0.6,1.2,2,1.4,3.2c-1.7,3-2.4,6.6-5.4,8.8c-2.4-0.2-2.4-2.3-2.2-3.6c0.8-6.4,1-12.6-2.1-18.7c-0.9-1.7,0.1-4.5,0.3-6.7
	c-0.6-1.8,0.8-2.8,1.5-4.2C293.4,112.1,294.1,111.3,295.4,111.2z"/>
<path class="st11" d="M267.9,178.1c-3.2,2.4-6.4,4.8-9.6,7.2c-5.7,3.1-12.2,2.6-18.4,3.6c-1.3,0.2-2.8,0.2-3-1.7
	c0.9-2,3-2.2,4.6-3.1c1.5-0.6,3.1-1.1,4.5-1.8c2.6-1.1,5.2-2,7.7-3.1c3.3-1,6.2-2.7,9-4.5c1.6-0.7,3.2-1.4,4.7-2.4
	c2.1-1,4-2.3,6-3.7c0.9-0.6,1.6-1.4,2.6-1.9c0.4-0.1,0.8,0,1.2,0.3c-0.3,3.4-3.9,4.4-5.2,7C271.2,176,269.9,177.4,267.9,178.1z"/>
<path class="st12" d="M132.2,236.1c-2.4,0.7-4.7,1.4-7.1,2.1c-1.6,1.4-3.6,1.6-5.6,1.8c-6.3-1.5-12.6-3-19.2-1.9
	c-2.2,0.4-5.1,1.5-6.5-1.7c1.6-3.4,5.1-3.5,8-4.6c4.6-0.4,9.2-0.7,13.8-1c5.8-0.4,11,1.8,16.3,3.4
	C132.8,234.4,132.9,235.3,132.2,236.1z"/>
<path class="st13" d="M260.2,121.1c-3.3,2.6-6.5,5.2-9.8,7.8c-0.1,0.1-0.4,0.1-0.4,0.3c-1.2,5.3-7.3,7.1-8.8,12.2
	c-0.2,0.3-0.5,0.5-0.9,0.6c-0.8,0.3-1.3,0.8-1.7,1.5c-1.5,2.6-4,2.4-6.4,2.7c-0.5-0.1-0.9-0.4-1.2-0.7c-0.2-5.9,4.4-9.1,7.7-13
	c0.9-1.1,2.4-1.7,3.1-3.1c0.7-0.6,1.4-1.4,2.5-1C249.8,126.4,254.1,121.7,260.2,121.1z"/>
<path class="st14" d="M168.2,228.2c-1.8-0.6-3.1,1.9-5,0.8c-9.9,0.2-19.7,0.2-29.6,0.6c-2.7,0.1-5.3-0.1-7.9-0.4
	c-1.3-0.2-3.4-0.1-2.2-2.6c5.3-3.1,11.3-1.3,16.9-2.1c8.7-1.2,17.4,0,26.1-1.2c3.5-1.3,7.1-1.1,10.7-1.3c1.5-0.1,3.4-0.5,3.9,1.9
	c-2,0.7-4,1.5-6,2.2C173.2,228.1,170.8,228.4,168.2,228.2z"/>
<path class="st15" d="M123.2,227.2c6.8,2.2,13.8,0.7,20.7,0.8c6.4,0.1,12.9-1.1,19.2,1c-2.1,0.7-4.2,1.3-6.3,2
	c-1.8,1.6-4.1,1.5-6.2,2c-12.3,0.4-24.4-1.8-36.6-1.9c-1.8,0-4.1,1-5.1-1.7c0.4-1.3,1.4-1.9,2.6-2.3c1.1-0.4,2.3-0.7,3.5-0.5
	c2.3,1,4.7,0.5,7,0.2C122.5,226.8,122.9,226.9,123.2,227.2z"/>
<path class="st16" d="M277.3,167.1c-0.3,0-0.7,0.1-1,0.1c-3.7-1.4-2.4-4.7-2.1-7c0.6-5.4,0.5-10.9,0.7-16.3c0.1-2.8,0.3-5.6-0.7-8.3
	c-0.7-2-0.2-3.6,1.6-4.8c0.7-0.4,1.5-0.5,2.4-0.4c1.9,0.5,2.5,1.9,2.7,3.7c1,8.9,0.7,17.7-0.2,26.6c-0.2,1.9-1.4,3.3-2.2,4.9
	C278,166.1,277.7,166.6,277.3,167.1z"/>
<path class="st17" d="M242.2,129.4c-2.9,3.7-5.8,7.4-8.7,11c-1.2,1.4-2.1,2.9-2.3,4.8c-1.4,1-3.2,1.6-3.9,3.4
	c-2.9,0.9-5.9,2.2-7.1-2.2c0.2-1.9,0-3.7-0.2-5.6c1.6-2.8,5.1-2.1,7.2-3.9c3-1.6,6.7-1.7,9-4.6c1.3-0.8,2.7-1.5,4-2.3
	C240.9,129.6,241.2,128.5,242.2,129.4z"/>
<path class="st18" d="M107.2,182.1c1.9-3.1,5.3-4,8-6.1c2.5,0.3,3.3,2.7,3.3,4.2c-0.1,2.8,1.1,5.3,1.2,8c-1.1,2-3.5,2.3-5,3.7
	c-1.6,1.1-3.2,2.2-5.3,1.9C105.4,190.6,107,186.2,107.2,182.1z"/>
<path class="st19" d="M306.1,94.1c-2.3,1.4-2.2,4.3-3.8,6.3c-2,0.4-2-1.2-1.5-2.1c2.5-5.1,1.4-10.7,2.1-16c1.6-2.9,4.2-5.4,4.3-9
	c2.6-5.1,4.3-10.5,6.1-16c2.6,0.4,1.4,2,1.1,3.3c-1.4,6.9-3,13.8-4.2,20.8c0,0.6,0.1,1.3,0.1,1.9C309.6,87.2,309,91,306.1,94.1z"/>
<path class="st20" d="M277.2,109.1c1.2,5.6-2.1,9.7-5.5,13c-5.9,5.7-11.8,11.6-19.4,15.2c-0.6-0.1-0.9-0.4-1-1
	c3.4-2.6,7.1-4.9,10.1-7.9c4-3.8,8.4-7.6,7.9-14.1C271.3,111.6,274,110,277.2,109.1z"/>
<path class="st21" d="M109.2,229.4c3.6,1.9,7.5,0.7,11.2,0.8c9.2,0.4,18.4,2.5,27.7,1.1c0.9-0.1,1.6,0.3,2.1,1
	c-0.1,2.2-1.9,1.1-2.9,1.5c-3,0.6-6,1.8-9.1,1.5c-2,0.3-4,0.6-6,0.9c-5.4-3.1-11.3-4.3-17.6-4.2c-4.1,0.1-8.3,1.2-12.4,0.4
	C103.8,229.4,106.1,228.4,109.2,229.4z"/>
<path class="st22" d="M288,119.1c-0.5,1.4-1.5,2.3-2.8,2.9c-2,0.4-2.9,3-5.2,2.6c-2.4-1.6-0.8-3,0.2-4.4c1.2-1.7,3.1-3,2.8-5.4
	c1.4-3.3,3.1-6.3,3.3-10.2c0.2-4.2,4-7,6-10.6c0.8-1.7,2.6-2.2,3.9-3.2c0.5,5.1-2.1,9.6-3,14.5C292.2,110.2,289.2,114.4,288,119.1z"
	/>
<path class="st23" d="M303.2,82.2c0.8,5,1.4,9.9-0.9,14.7c-0.5,1.1-1.8,2.3,0,3.4c-0.1,0.3-0.2,0.6-0.2,0.8c-0.3,2.1-1,3.9-2.9,5
	c-1.3,1.7-2.5,3.4-3.8,5.1c-0.7,0.7-1.4,1.3-2.1,2c-2.3,0-1.8-1.6-1.2-2.7c3.3-6.6,5.4-13.4,5.8-20.8c0.1-1.3,2-1.9,1.5-3.5
	c1-1.4,1.9-2.7,2.9-4.1C302.6,81.8,302.9,81.8,303.2,82.2z"/>
<path class="st24" d="M278.4,165.6c2.3-10.6,2.1-21.4,1.3-32.2c-0.1-1.2-0.5-1.8-1.4-2.2c-0.3-1.7,0.4-2.3,2-2
	c4.3,2.9,3,7.7,3.2,11.6c0.4,6.1-0.6,12.3-1.1,18.5c1.4,0.8,1.9-1.1,3-1C285.9,163.4,280.5,163,278.4,165.6z"/>
<path class="st25" d="M152.2,161.2c-0.5,2.7-1.3,5.3-0.5,8.2c0.4,1.5,1.3,1.7,2.5,1.8c0.3,0.4,0.3,0.8,0.1,1.3
	c-1,1.1-2.4,1.5-3.8,1.8c-0.4,0.1-0.9,0.2-1.4,0.2c-2,0.2-3.9,1.5-6,1c-3.3-3.4-3.8-7.1-1.3-11.2c0.3-0.6,0.8-1.1,1.3-1.6
	c0.8-0.9,1.8-1.5,3.1-1.5C148.2,161.8,150.2,159.1,152.2,161.2z"/>
<path class="st26" d="M292.2,94.1c0.1,1.4-0.1,2.6-1,3.7c-2.4,2.8-4,5.5-3.8,9.7c0.1,2.4-1.9,5.5-4.1,7.7c-1.2,4.6-4.9,7.5-7.9,10.8
	c-0.8,0.8-2,1.2-3.1,0.2c1-4.6,5.5-6.7,7.3-10.7c1.6-3.7,4.4-7,2.5-11.4C285.4,100.8,288.8,97.4,292.2,94.1z"/>
<path class="st27" d="M143.2,164.2c-3.4,3.7-0.4,7.3,0,11c-2.4,3.3-6.4,3.7-9.7,5.5c-0.5,0.1-0.9,0-1.4-0.1
	c-2.3-3.2,0.6-6.4,0.1-9.6c-0.2-1,0.8-2.1,0.3-3.3c0.2-0.5,0.4-1,0.7-1.5c0.6-0.9,1.5-1.5,2.7-1.5c1.2,0.2,2.5,0.3,3.6-0.3
	C140.8,164.3,141.9,163,143.2,164.2z"/>
<path class="st28" d="M299.3,86.3c-0.3,7.9-1.8,15.6-5.3,22.8c-0.6,1.3-2.6,2.5-0.7,4.2c0.2,1.8-1.5,2.5-2.1,3.9
	c-1.1,0.7-2.2,1.3-3.2,2c-1.3-0.6-1.5-1.6-0.8-2.8c3.6-5.9,5.8-12.4,6.4-19.2c0.2-2.4,2.9-3.7,2.5-6.2
	C296.5,88.9,298.3,87.9,299.3,86.3z"/>
<path class="st29" d="M107.2,182.1c1.5,3.7,0,7.9,2.2,11.5c0.1,1.1-0.5,1.8-1.2,2.4c-2,1.1-3.6,3.2-6.3,2.3c-1.4-1.1,0-3.3-2.3-4.5
	c-1.9-1-2-3.6-0.4-5.7C100.8,184.8,104,183.4,107.2,182.1z"/>
<path class="st30" d="M119.2,188.1c-1.6-2.3-2.1-4.7-1.7-7.6c0.2-1.7-1.1-3.1-2.3-4.4c1.3-0.6,2.6-1.3,3.9-1.9
	c1.4-1.1,2.9-1.9,4.8-1.5c4.2,2.3,1.9,7.1,4,10.2c-0.3,1-0.9,1.5-1.7,2.1c-1.1,0.7-2.3,1.2-3.4,2C121.6,187.6,120.8,189,119.2,188.1
	z"/>
<path class="st31" d="M43.2,312.7c0,0.5,0,1,0,1.6c0.1,1.4,0.3,2.9-1.7,3.1c-2.3-2.4-0.8-5.4-1.2-8.1c0-1.7,0-3.5,0-5.2
	c1.1-9.6,1.3-19.3,3.7-28.7c2.2-1.2,2.9,0.3,3.3,2c0.4,1.5,0.2,3.2,0.8,4.7c-0.1,6.5-2.1,12.7-3.2,19c-0.6,3.1-1.6,6.1-1.3,9.3
	C43.7,311.1,43.6,311.9,43.2,312.7z"/>
<path class="st32" d="M127.2,183.1c-2.8-2.7-1.6-6.7-3-9.9c-0.4-2.1,2.1-2.5,2.5-4.2c0.2-0.4,0.5-0.6,1-0.7c1.8,0.7,3.1-1.6,4.9-0.7
	c0.9,0.2,2.2,0.2,1.5,1.6c-1.6,3.5-0.7,7.3-1.8,10.8c-0.5,1.7-1.9,2.5-3.2,3.4C128.4,183.8,127.7,183.7,127.2,183.1z"/>
<path class="st33" d="M223.3,206.3c-4.2,1.7-7.5-0.3-10.7-2.7c-0.6-0.4-1.6-0.2-2.4-0.3c-1.7-1.8-4.5-0.1-6.1-2
	c1.7-3.8,5.1-2.1,7.8-2.4c5.8,1.2,11.7,1,17.4,1.8c1.2,0.2,2.7-0.7,2.9,1.4C229.4,203.8,226.9,206.2,223.3,206.3z"/>
<path class="st34" d="M75.2,259c-3.3,4.2-7,8-11.3,11.3c-0.6,0.5-1.2,0.6-1.9,0.2c-1-1.5-0.3-3.1-0.4-4.7c2.6-4.6,5.4-9,9.9-12.1
	c2.3-0.6,5.3-2.7,5.3,2.3C76.5,257,75.9,258,75.2,259z"/>
<path class="st35" d="M94.2,236.2c2.7,2.1,5.6,0.5,8.4,0.3c5.8-0.5,11.3,0.4,16.6,2.7c-0.4,0.9-0.9,1.5-2,1.1
	c-1.7,0.3-3.4,0.6-5,0.9c-5.8-1-11.6-0.5-17.4,0.8c-0.7-0.1-1.4-0.2-2.1-0.3c-1.6-0.6-3.9,1.1-5-1.4c0.1-1.6,1.3-2.6,2.3-3.7
	C91.4,235.5,92.8,234.9,94.2,236.2z"/>
<path class="st36" d="M56.2,280.5c-0.3,0.4-0.6,0.9-0.9,1.3c-1.8,2.1-2.6,5.1-5.1,6.7c-3.8-2.3-0.4-4.8-0.3-7.2
	c0.5-0.4-0.5-1-0.1-0.5c0.1,0.2,0.1,0.3-0.1,0.4c-2,1-2,1-2.5-3.1c0.3-2.9,1-5.6,2.9-7.9c5.1-1.6,5.1-1.6,7.5,4
	C57.9,276.5,56.4,278.4,56.2,280.5z"/>
<path class="st37" d="M99.2,188.1c0,2.3-0.3,4.8,2.1,6.1c2.1,1.1-0.2,3,1,4.1c0.3,0.4,0.3,0.9,0,1.3c-1.6,1.3-2.9,3.2-5.4,2.9
	c-3.1-2.2-4-5.9-5.6-9.1c1.6-1,3.3-1.8,4.2-3.7C96.1,188.4,97.2,186.9,99.2,188.1z"/>
<path class="st38" d="M169.2,162.2c-0.5-1.3-2.2-2.1-1.1-3.9c1.3-2.1-0.8-2.3-1.9-3.1c1.5-3,4.6-2.1,7-2.8c2.9-0.9,6-1.3,9-2.1
	c0.3,0.1,0.7,0.1,1,0.2c1,0.5,2.5-0.4,3,1.1c0.2,0.6-0.5,1.4-1.1,1.4c-5.6,0.4-7.2,5.5-10.4,8.6
	C172.8,161.4,171.2,163.5,169.2,162.2z"/>
<path class="st39" d="M252.3,190.3c-1.3,0.3-2.5,0.7-3.8,1c-3.5,2.2-7.6,1.5-11.4,2c-1.8,0.2-3.6,0.4-5.3,0.9
	c-1.8,0.4-3.7,0.4-5.6,0.4c-2.1-0.2-4.5,0.5-6.1-1.7c-0.1-1.4,1-1.8,1.9-2.4c1.7-0.7,3.6-1,5.4-1c6.4-1.2,13-0.6,19.4-1.7
	c2.1-0.4,4.5-1.1,6.5,0.6C253.5,189.4,253.1,189.9,252.3,190.3z"/>
<path class="st40" d="M76.2,256.2c0.7-4.7-3-0.9-4.1-2.1c0.3-3.5,3.1-4.9,5.5-6.7c0.4-0.2,0.9-0.4,1.3-0.5c2.9-1.8,5.3-0.3,7.7,1.1
	c0.9,0.4,1.7,0.9,1.8,2c-0.5,1.9-2.1,2.4-3.6,3.1c-1.9,1-3.8,2-5.7,3C78.2,255.4,77.3,257,76.2,256.2z"/>
<path class="st41" d="M91.3,193.4c2,2.9,4,5.8,6,8.6c-0.4,2.3-2.1,3.5-4,4.6c-0.5,0.1-0.9,0-1.4-0.1c-1.9-1-2.3-3.4-4.5-4.3
	c-1.6-0.6-2.4-2.3-1.2-4.1C87.6,196.3,88.9,194.3,91.3,193.4z"/>
<path class="st42" d="M86.2,198.1c0,4.2,5.5,4.2,6,8c0.4,2.7-1.9,3-3.6,3.7c-2.9-0.5-5.3-2.4-8.4-2.5c-0.8,0-1.7-1-1.1-2.2
	C81.2,202.5,83.6,200.2,86.2,198.1z"/>
<path class="st43" d="M174.2,161.2c3-3.9,4.4-9.8,12.4-8.7c-2-1.2-2.7-1.6-3.3-2c1.8-0.2,3.6-0.1,5.2-1.2c0.9-1.1,2.1-1.1,3.3-1
	c3.3,2,0.4,2.8-0.9,3.5c-4.5,2.5-7.9,6.3-11.4,9.9c-1,0.9-2.1,1.4-3.4,1.3C175.1,162.9,174,162.7,174.2,161.2z"/>
<path class="st44" d="M181.1,223.9c-4.7-1.5-9.3-0.3-13.9,0.3c-5,0.2-5,0.2-5.8-2.4c0.9-0.6,1.8-0.8,2.9-0.9c1.6,0,3.1-0.3,4.6-0.8
	c3.5-0.6,7.2,0,10.7-1.2c4.6,0.6,9.2-2.4,13.8,0.2C189.6,221.7,185.3,222.7,181.1,223.9z"/>
<path class="st45" d="M94.2,241.2c6-1.6,12-3.5,18,0c-3.5,1.4-7,3.1-10.9,3.1c-2.1,0.6-4.1,1.2-6.3,1.2c-1.3-0.9-1.8-2.1-1.2-3.7
	C93.9,241.6,94.1,241.4,94.2,241.2z"/>
<path class="st46" d="M232.2,202.1c-6.7-0.6-13.3-1.3-20-1.9c-0.4-1.1,0.1-1.8,1-2.5c0.7-0.3,1.4-0.4,2.1-0.4
	c2.3,0.7,4.4,0.1,6.6-0.5c1.1-0.3,2.3-0.5,3.5-0.3c3.5,1.9,8.2-0.2,11.2,3.4c-0.6,1.5-1.5,2.5-3.3,2.3
	C232.9,202.2,232.5,202.2,232.2,202.1z"/>
<path class="st47" d="M51.2,270.1c-1.6,2.5-2.2,5.3-2.9,8.1c-1.2,1.1,0.1,2.9-1,4c-2.5-1.7,1-5.8-2.8-7c-0.8-1.4,0.3-2.1,1-3
	c1-1.6,1.5-3.2,0.8-5.1c0-1.5-0.1-3.1,1.5-4c0.8,1.5,2.1,2.1,3.4,1.2c1.6-1.1,1,0.3,1.2,0.8C53,267.1,52.6,268.7,51.2,270.1z"/>
<path class="st48" d="M67.2,234.2c-0.3-0.2-0.5-0.5-0.8-0.6c-3.4-1.2-3.4-1.2-4.1-4.4c-0.4-0.2-0.5-0.3-0.3-0.5
	c0.1-0.1,0.2-0.2,0.4-0.2c1.3-1.7,2.5-3.3,3.8-5c2.1,1.8,5.5-0.2,7.3,2.5c0.3,1.6-0.8,2.6-1.5,3.7C70.3,231.2,70.2,234.2,67.2,234.2
	z"/>
<path class="st49" d="M236.2,200c-3.5-1.8-7.7-0.4-11-2.8c0.3-2.7,2.5-2.1,4.1-2.4c4.8-0.8,9.7-1,14.6-1.4c0.5,0.1,1,0.4,1.4,0.8
	c-1.9,2.5-5.4,3.2-7.1,5.9C237.5,200.8,236.8,200.9,236.2,200z"/>
<path class="st50" d="M73.1,213.8c0.4-2.5,2.1-3.9,4.1-5.1c2.6,2.6,6.6-0.2,9.2,2.4c0.3,2.3-1.8,3.1-2.7,4.7
	c-1.4,1.3-2.5,3.1-4.8,2.8c-0.7-1.1-0.4-3.2-3-2.1C74.2,217.1,72.1,216.7,73.1,213.8z"/>
<path class="st51" d="M45.4,272.3c0.6,1.3-1,1.9-1,3c-1.1,9.7-2.2,19.3-3.3,29c-0.9,1.6-0.2,3.3-0.4,5c0,1,0.1,2-0.2,2.9
	c-0.4,0.4-0.8,0.4-1.3,0.1c-0.3-12.5,1.7-24.7,4-36.9C43.5,273.8,43.9,272.8,45.4,272.3z"/>
<path class="st52" d="M310.3,81.4c-0.6-7.3,1.9-14.1,3.4-21c0.3-1.2,0.8-2.2-0.4-3.1c0.5-2.7,0.5-5.6,1.9-8.1
	c2.5,3.7,0.7,7.4,0.1,11c0,0.7,0,1.4,0,2.1c0.5,0.7,0.5,1.3-0.1,1.9C313.2,69.8,313.3,76,310.3,81.4z"/>
<path class="st53" d="M253.2,189.1c-6.1-2.1-12,0.7-18,0.6c-2.7,0-5.2,2.1-8,0.6c0.4-1,1.3-1.5,2.2-2.1c2.6-0.8,5-2.7,7.9-0.9
	c6.3,0.6,12.4-0.6,18.4-2c0.9-0.2,1.7-1.2,2.6-0.1c-0.5,2.3-3.5,1.8-4.3,3.8C253.8,189.4,253.5,189.5,253.2,189.1z"/>
<path class="st54" d="M73.2,226.2c-1.6-1.3-3.5-0.7-5.2-0.6c-2,0.1-1.7-0.9-1.8-2c1.4-1.8,1.6-4.5,3.9-5.7c0.7,0.9,1.6,1.6,2.8,1.4
	c2.5-0.4,3.1,1.2,3.3,3.1C75.9,224.3,75.2,225.7,73.2,226.2z"/>
<path class="st55" d="M75.3,222.5c-0.4-1.1,0.4-3.3-2.4-2.1c-1.1,0.5-3.2-0.2-2.8-2.5c0.3-1.9,1.7-3,3-4.1c0,2.7,1.9,1.7,3.1,1.4
	c2.8-0.6,3.1,1,3.1,3.1c0.2,0.4,0.3,0.8,0.1,1.3C78.4,221,77.4,222.6,75.3,222.5z"/>
<path class="st56" d="M86.4,211.3c-1.9-1.2-3.8,0.1-5.6-0.1c-1.8-0.1-3.7,0.1-3.5-2.6c1.6-0.6,0.4-2.8,1.9-3.5
	c2.6,2.4,7,0.8,9.2,4.2C88.5,210.7,87.8,211.4,86.4,211.3z"/>
<path class="st57" d="M62.4,228.6c0,0.2,0,0.5,0,0.7c-4.2,6.6-6.9,13.9-10.2,21c-0.7-0.5-1.1-1.3-0.7-2.1c2.4-6.8,5.7-13.1,9.2-19.5
	C61,227.8,61.8,227.5,62.4,228.6z"/>
<path class="st58" d="M320.1,69.8c-0.3-6.2-0.6-12.4-0.9-18.6c0.4-0.3,0.4-0.9,1-1c1.9,2.3,0.9,5.1,0.9,7.6c0.2,6.4,0.1,12.8,0,19.2
	c0,1.7,0.7,3.8-2.1,4.2c0.1-1.3,0.2-2.7,0.2-4C320.3,74.8,319.2,72.2,320.1,69.8z"/>
<path class="st59" d="M193.3,219.2c-4.7,0.3-9.4,0.7-14.1,1c-0.2-0.3-0.3-0.5-0.3-0.8c0-0.3,0.1-0.4,0.1-0.4
	c0.6-0.7,1.5-1.2,2.4-1.5c2.9-0.3,5.8-1.5,8.8-0.3c3.3,0.1,6.6-1.6,10-0.1C198.1,218.3,195.8,219.1,193.3,219.2z"/>
<path class="st60" d="M227.4,137.2c-2.4,1.4-4.7,2.7-7.1,4.1c-1,2.1-2.9,2.7-5,3.1c-2.5-0.1-4.7,2-7.3,0.8c-0.3-0.5-0.3-0.9,0.1-1.4
	c0.8-0.5,1.6-1,2.4-1.5c2.7-1.9,5.9-2.8,8.9-4.1c2.4,0.3,4.4-1.1,6.7-1.4C226.5,136.8,227,136.9,227.4,137.2z"/>
<path class="st61" d="M182.3,150.3c-1.7,2.8-4.8,2.1-7.2,2.7c-3,0.7-6,0.9-8.8,2.2c-0.7,0-1.3-0.1-2-0.1c3.6-3.8,8.6-3.6,13.1-4.7
	C178.8,150.1,180.7,148.4,182.3,150.3z"/>
<path class="st62" d="M192,149.1c-1.2,0.1-2.3,0.2-3.5,0.3c-0.4-0.2-0.8-0.4-1.3-0.6c6.3-1.6,12-5.9,19-4.7
	c-2.2,3.7-6.6,3.2-9.8,4.9C195,149.7,193.5,148.6,192,149.1z"/>
<path class="st63" d="M56.2,280.5c-1.9-2.4,0.7-4.2,0.9-6.4c-0.4-1.8,0.7-3,1.5-4.4c1.1-1.4,1.8-3.3,3.9-3.5c1.5,1.4-0.5,2.6-0.2,4
	c-0.2,3-2.8,4.7-4,7.2C58.4,279,57.6,280,56.2,280.5z"/>
<path class="st64" d="M245.3,194.3c-0.4,0-0.8,0-1.1,0c-3-0.7-6.1,0.3-9.1,0.1c-1.1-0.1-2.3,0.3-2.9-1.1c5.2-2.1,10.9-1.1,16.2-1.9
	C248.4,193.4,246.4,193.3,245.3,194.3z"/>
<path class="st65" d="M310.2,118.2c1-3.6,2-7.2,3.1-10.9c0.4-0.7,0.7-1.4,1.1-2.1C315.7,109.5,313.7,115.8,310.2,118.2z"/>
<path class="st66" d="M315.3,60.2c0-3.7-0.1-7.4-0.1-11c0-0.3-0.1-0.7-0.1-1c-1.2-2.9-0.3-5.9-0.1-8.9c1.7-1.5,1.3,1,2.1,1.1
	c0.7,0.7,0.8,1.5,0.7,2.4c-0.6,5.1-0.4,10.3-1.6,15.3C315.9,58.8,315.6,59.5,315.3,60.2z"/>
<path class="st67" d="M47.6,263.2c0.2,1.6-0.6,2.8-1.5,4c-1.1-4.9,1.8-8.8,3.3-13c0.2-0.4,0.6,0.7,0.8,1.2
	C50,258.2,48.8,260.7,47.6,263.2z"/>
<path class="st68" d="M50.2,288.2c1.3-2.5,2.1-5.3,5.1-6.3c-0.6,4-3,7.3-4.9,10.7c-0.8-0.2-1.3-0.6-1.6-1.3
	C48.4,289.8,48.9,288.8,50.2,288.2z"/>
<path class="st69" d="M49.4,291.3c0.3,0.4,0.7,0.8,1,1.2c-1.3,3.7-2.7,7.3-4,11c-0.8-0.2-1.4-0.7-1.7-1.5
	C45.6,298.1,45,293.6,49.4,291.3z"/>
<path class="st70" d="M317.1,42.3c0-0.6,0-1.3,0-1.9c0.3-0.3,0.3-2.3,1-0.6c1.3,3.3,2.4,6.7,2.1,10.4c-0.3,0.3-0.7,0.7-1,1
	c-0.3-0.6-0.7-1.3-1-1.9C316.7,47.1,316.4,44.8,317.1,42.3z"/>
<path class="st71" d="M117.2,240.3c0.7-0.4,1.3-0.7,2-1.1c2-0.3,3.9-0.7,5.9-1c1,0.1,1.9,0.1,2.9,0.2
	C124.5,239.6,121.3,242.6,117.2,240.3z"/>
<path class="st72" d="M196.1,147.9c3.4-1.3,6.7-2.5,10.1-3.8c0.6-0.1,1.3-0.2,1.9-0.3c0,0.5,0.1,0.9,0.1,1.4c-1.5,2.8-4.6,2.8-7,4
	c-1.7,0.2-3.5,1.2-5.2,0C195.7,148.8,195.7,148.3,196.1,147.9z"/>
<path class="st73" d="M158.4,156.6c-1.7,1.8-4.6,0.8-6.1,2.9c-1.6,0.6-3.1,2.1-5.1,0.7C150.2,156.8,153.9,155.4,158.4,156.6z"/>
<path class="st74" d="M315,103.2c0.8-4,1.6-8,2.4-11.9c1-0.5,1.3,0.5,1.8,1C317.5,95.8,318.9,100.5,315,103.2z"/>
<path class="st75" d="M219.4,138.3c-2.4,2.5-5.6,3.4-8.9,4.1c-0.5-0.2-1.6-0.6-1.2-0.8C212.6,140.4,215.4,137.6,219.4,138.3z"/>
<path class="st76" d="M147.2,233.2c1-0.5,2.4,0.7,3-0.9c2.2-0.4,4.4-0.8,6.7-1.2c0.8,0.1,1.5,0.2,3.6,0.6c-5.3,1.2-9.1,2.9-13.3,2.6
	c-0.3-0.2-0.3-0.4-0.3-0.7C147.1,233.3,147.1,233.2,147.2,233.2z"/>
<path class="st77" d="M227.4,137.2c-0.4-0.1-0.9-0.2-1.3-0.3c3.4-1.5,6.8-3.1,10.2-4.6C234.7,136.5,230.7,136.3,227.4,137.2z"/>
<path class="st78" d="M95.2,245.2c1.8-1.9,4-1,6.1-1c-1.8,2.3-5,2.2-7.1,3.9c-0.3,0.4-0.8,0.6-1.3,0.7c-0.8,0-1.9-0.3-1.7-1.1
	C91.7,245.7,93.4,245.3,95.2,245.2z"/>
<path class="st79" d="M300.6,137.4c-1.5-0.6-0.5-2.3-1.4-3.2c1.8,0,2.2-1.6,2.9-2.8c0.5-0.8,0.7-2.5,2.2-1
	C303.6,133,302.3,135.3,300.6,137.4z"/>
<path class="st80" d="M93.2,248.2c0.3,0,0.7,0,1-0.1c-1.9,3.8-5.5,4.6-9.3,5c1.1-1,2.2-2.1,3.3-3.1
	C89.5,248.3,91.7,249.3,93.2,248.2z"/>
<path class="st81" d="M168.2,228.2c2.3-0.7,4.6-1.4,6.9-2c0.6,0,1.3,0.1,2,0.2C174.4,228.8,171.5,229.3,168.2,228.2z"/>
<path class="st82" d="M127.6,169.2c1.1,3.2-2.9,2.1-3.3,4c-1.8,0.1-3.3,1.4-5.2,0.9c0.1-0.3,0.2-0.6,0.3-0.9
	c1.1-1.3,2.6-2.1,4.1-2.9l-0.1,0.1C124.5,169.1,126.1,169.3,127.6,169.2z"/>
<path class="st83" d="M303.2,82.2c-0.3,0-0.7,0-1,0c1.7-3,3.4-6,5-9C308,77.2,305.7,79.7,303.2,82.2z"/>
<path class="st84" d="M147.2,233.2c0,0.3,0,0.7,0,1c-2.9,1-5.7,3-9,1C141.1,234.1,144.1,233.5,147.2,233.2z"/>
<path class="st69" d="M45.5,302.2c0.3,0.4,0.5,0.8,0.8,1.2c-0.6,3.2-1.6,6.3-3.1,9.2c-0.1-0.8-0.1-1.7-0.2-2.5
	C42.7,307.1,42.9,304.3,45.5,302.2z"/>
<path class="st85" d="M42.1,317.1c0.4-1,0.7-1.9,1.1-2.9c1.7,4.1,1.3,5.2-2,4.9C40.7,318.1,41.5,317.6,42.1,317.1z"/>
<path class="st86" d="M58.3,277.4c0.3-3,2.7-4.7,4-7.2c0.6,0,1.2,0,1.7,0C62.4,272.8,60.8,275.5,58.3,277.4z"/>
<path class="st87" d="M315,39.3c0,3,0,5.9,0.1,8.9C312,45.3,314.3,42.3,315,39.3z"/>
<path class="st88" d="M42.1,317.1c-0.3,0.7-0.6,1.4-0.9,2c-0.4-0.3-0.7-0.7-1.1-1c-0.5-2-0.7-4,0.2-5.9c0-0.9,0-1.8,0.1-2.7
	c0.1-0.5,0.3-0.6,0.7-0.3C42,311.7,40.1,314.7,42.1,317.1z"/>
<path class="st89" d="M136.3,165.3c-1,0.3-2,0.5-3,0.8c1.6-2.6,3.5-4.7,7-2.9c-0.2,0.4-0.4,0.7-0.8,0.9
	C138.4,164.5,137.7,165.9,136.3,165.3z"/>
<path class="st90" d="M265.2,117.1c-1.6,0.7-3.2,1.4-4.9,2.2C261.6,116,263.2,115.3,265.2,117.1z"/>
<path class="st91" d="M147.2,160.3c1.8,0.8,3.2-1.6,5.1-0.7c0,0.6,0,1.1-0.1,1.7c-2-0.7-4,2.3-6,0
	C146.6,160.9,146.9,160.6,147.2,160.3z"/>
<path class="st92" d="M139.3,163.6c0.3-0.1,0.6-0.2,1-0.4c1-0.2,2-0.3,2.9-0.5c0,0.5,0,1,0,1.5c-1.3,0.4-2.7,0.7-4,1.1
	C138.7,164.7,138.7,164.1,139.3,163.6z"/>
<path class="st93" d="M76.2,256.2c1-0.2,1.9-1.6,3-0.1c-1.2,1.1-2.3,2.4-4,2.9C75.2,257.9,75.1,256.8,76.2,256.2z"/>
<path class="st94" d="M236.2,200c0.7,0.1,1.3,0.2,2,0.2c-1.3,1.6-2.4,3.6-5,2C234.2,201.5,235.2,200.7,236.2,200z"/>
<path class="st95" d="M123.4,170.3c-0.6,2-2.4,2.5-4.1,2.9C119.2,170.3,121.6,170.8,123.4,170.3z"/>
<path class="st96" d="M267.9,178.1c1.4-1.3,2.8-2.6,4.2-3.9C272.3,177.1,270.3,177.9,267.9,178.1z"/>
<path class="st95" d="M127.6,169.2c-1.1,1.5-2.8,1.1-4.3,1.2c0.7-2.3,2.5-2.2,4.4-2C127.6,168.6,127.6,168.9,127.6,169.2z"/>
<path class="st97" d="M319.2,92.2c-0.6-0.3-1.2-0.6-1.8-1c-0.5-1.5,0.6-2.7,0.9-4C319.9,88.6,319,90.5,319.2,92.2z"/>
<path class="st98" d="M40.3,312.2c-0.1,2-0.1,3.9-0.2,5.9c-1.6-1.8-0.5-3.9-0.9-5.9C39.6,312.2,39.9,312.2,40.3,312.2z"/>
<path class="st99" d="M217.2,210.3c1-0.6,2-1.2,3-1.8C220.7,211.5,219.1,211.1,217.2,210.3z"/>
<path class="st100" d="M242.2,129.4c-0.7,0.2-1.3,0.4-2,0.6c0.7-1.9,1.7-3.3,4-1.8C243.6,128.6,242.9,129,242.2,129.4z"/>
<path class="st101" d="M253.2,189.1c0.3,0,0.6,0,0.8,0c0.7,0.4,0.8,1,0.2,1.5c-0.7,0.6-1.4,0.5-2-0.3
	C252.6,189.9,252.9,189.5,253.2,189.1z"/>
<path class="st102" d="M280.2,124.2c1.9-0.1,2.2-3.9,4.9-2.1c-0.6,1-1.3,2.1-1.9,3.1c-2.5,1.4-3.9,4.1-6.6,5.3
	c-1.2,0.6-1.9,1.8-3,2.6c-1.8,1.3-3.3,3-5.4,3.9c-0.7,0.2-1.4,0.2-2.1,0c-0.5-0.2-0.8-0.5-1.1-0.9c0-2.7,2.5-3.4,4-4.5
	C272.7,129.2,275.4,125,280.2,124.2z"/>
<path class="st103" d="M276.2,130.1c2.4-1.5,4-4.2,7.1-4.9c-1,1.3-2,2.7-3,4c-1,0.4-1.6,1-2,2c-0.7,0-1.3,0-2,0
	c-0.3-0.2-0.4-0.5-0.3-0.8C276,130.2,276.1,130.1,276.2,130.1z"/>
<path class="st104" d="M190.2,217.2c-2.9,1-5.9,1.1-9,1c-3.6-3.1-7.4-6.1-11.3-8.9c1.2-3.8,5.1-2.1,7.4-3.8c1.5-0.3,2.8,0.2,3.9,1.1
	c1.3,1.2,2.2,2.8,3.9,3.5C186.5,212.8,190,213.8,190.2,217.2z"/>
<path class="st105" d="M181.2,207.2c-1.3-0.3-2.7-0.6-4-1c-1.2,0.8-1.9,0.4-2.4-0.8c0.1-1.7,1.4-2,2.7-2.2c0.5-0.1,1-0.1,1.5,0
	c5.3-0.4,10.4-1.6,15.6-2.3c3.2-0.4,6.5-1.2,9.6,0.4c2,0.7,5-1.6,6,2c-8.1,0.5-16.1,1.4-24,3C184.8,207.7,183.1,207.9,181.2,207.2z"
	/>
<path class="st106" d="M181.2,207.2c1.7-0.3,3.3-0.7,5-1c0.2,1.5-0.3,2.7-1,4C182.2,211.5,181.7,209.3,181.2,207.2z"/>
<path class="st107" d="M317.1,42.3c0.4,2.3,0.7,4.6,1.1,7c0,3.1-0.2,6.2-1.9,8.9C316.8,52.9,315.3,47.5,317.1,42.3z"/>
<path class="st108" d="M306.1,94.1c1.4-3.6,2.8-7.2,4.2-10.8c0.8,4.5-1.1,8.2-3.1,11.9C306.9,94.8,306.5,94.4,306.1,94.1z"/>
<path class="st0" d="M320.1,69.8c-0.1,2.5,1,5.1-0.7,7.4C319.4,74.7,319,72.2,320.1,69.8z"/>
<path class="st109" d="M315.2,64.1c0-0.6,0.1-1.2,0.1-1.9c1.3,1.2,1.1,2.6,0.6,4.1C315,65.8,315.3,64.9,315.2,64.1z"/>
<path class="st110" d="M62.4,266.2c-1.1,1.3-2.1,2.7-3.2,4c-0.2,0-0.3,0.1-0.5,0.1c0.4-3.8-4-5-4.6-8.2c2.4-9.2,7.1-17.3,11.9-25.3
	c0.5-0.8,0.8-1.8,1.2-2.6c1.3-1.7,2.7-3.3,4-5c3.6,0.4,6,2.9,8.5,5.2c0.6,1.1,0.6,2.2,0.5,3.3c-0.6,3.4-0.1,7-2,10.2
	c-2.3,1.7-4.3,3.7-6,6.1C68.3,257.7,65.2,261.8,62.4,266.2z"/>
<path class="st111" d="M54.2,262.2c1.9,0.1,2.3,4.2,5.3,1.8c1-0.7,1.4,0.8,0.6,1.8c-1,1.4-3.1,2.5-0.9,4.5c-0.7,1.3-1.5,2.6-2.2,3.9
	c-1.7-1.7-2.1-5.2-5.9-4c0-1.7,0.2-3.4,1.1-4.9C52.9,264.2,53.5,263.2,54.2,262.2z"/>
<path class="st112" d="M299.2,106.2c1-1.7,2-3.3,2.9-5c2.1,2.1-0.7,3.3-0.9,5.1C300.5,106.3,299.8,107.3,299.2,106.2z"/>
<path class="st113" d="M174.2,161.2c0.4,0.8,1.2,1,2,1c0.2,0.2,0.3,0.5,0.3,0.8c0,0.3-0.1,0.4-0.2,0.4c-1.2,0.9-2.5,1.7-3.9,2.3
	c-2.1,0-4,2-6.2,0.5c-0.5-0.2-2,0.1-0.7-1.1c1.2-1,2.4-1.9,3.6-2.9C171,162.6,172.2,159.7,174.2,161.2z"/>
<path class="st114" d="M154.2,172.1c0-0.3,0-0.6,0-0.9c4-1.1,7.4-4.3,11.9-3c0.1,0.2,0.2,0.4,0.4,0.6c-0.1,0.5-0.3,0.9-0.7,1.2
	c-2.5,1.6-5.4,2.2-8.1,3.1C156.4,173.3,155.1,173.3,154.2,172.1z"/>
<path class="st115" d="M166.2,166.2c2.1,0,3.8-2.1,6-1c0.5,1.6-0.9,2-1.7,2.8c-1.3,0.8-2.6,1.5-4.1,0.4c0,0-0.3-0.3-0.3-0.3
	C166.2,167.5,166.2,166.9,166.2,166.2z"/>
<path class="st116" d="M251.2,136.2c0.3,0.3,0.7,0.7,1,1c-1.4,2.6-3.9,4.1-6,6c0.3,2.7-1.9,3.2-3.6,3.9c-2,0.8-3.9,1.8-5.9,2.5
	c-2.5,0-4.8,2.3-7.5,0.7c-0.6-2.7,1.5-3.8,3.1-5.2c2.4-0.1,4.6-0.8,6-3c1.1,0.6,1.1-1.1,2-1c0.3,0,0.7,0,1,0
	C245.1,140.7,248.3,138.7,251.2,136.2z"/>
<path class="st117" d="M263.3,175.3c-2.6,2.5-5.8,3.8-9.1,4.8c-2.1-1.3-2.6-3.6-3.5-5.6c-1.6-8.7-2.2-17.6-4.7-26.1
	c-0.2-1.5,2.9-0.5,2-2.6c0.2-0.7,0.5-1.1,1.2-0.7c1.4-0.6,2.7-1.2,4.1-1.8c0.7-1.4,2.1-1.8,3.3-2.5c1.8-0.6,3.4-2.1,5.4-1
	c0.8,4,1,8,0.5,12.1C261.7,159.7,261.3,167.6,263.3,175.3z"/>
<path class="st118" d="M280.2,124.2c-5,4-10,8-15,12c-2.2,2.3-4.6,3.9-8,3c3.8-4.4,9.4-6.5,13.5-10.7c0.7-0.7,1.5-1.2,1.6-2.3
	c5.4-1.9,7.6-7.1,11-11c0.8,1.7,0.5,2.4-1.2,4.8C281.1,121.2,278.3,121.8,280.2,124.2z"/>
<path class="st119" d="M249.2,145.1c-0.4,0.3-0.7,0.7-1.1,1c-0.7,1.1-1.9,1.3-2.9,2c-2.9,1-5.6,2.6-8.9,2.3
	c-0.3-0.2-0.4-0.5-0.3-0.8c0-0.3,0.1-0.4,0.2-0.4c2.6-3.2,7.7-2.2,10-6C247.2,143.9,248.2,144.5,249.2,145.1z"/>
<path class="st120" d="M257.2,139.2c2.7-1,5.3-2,8-3c0.4,0,0.8,0,1.1,0.1c-0.3,2.4-2.1,3.2-4.2,3.6c-2,0.5-3.9,1-5.9,1.6
	c-0.5-0.4-0.5-0.8-0.1-1.3C256.6,139.9,256.9,139.6,257.2,139.2z"/>
<path class="st118" d="M256.2,140.2c0,0.4,0,0.8,0.1,1.3c-1,0.6-2,1.2-3,1.8C253.2,141.3,254.9,141,256.2,140.2z"/>
<path class="st121" d="M251.2,174.2c1.4,1.8,2.7,3.5,3,5.9c-2.5,1.4-5.1,2.6-7.9,3.2c-3.3,0-5.2-2.4-7.4-4.2c-5-3.9-8.8-9.1-13.9-13
	c-3.3-2.5-5.6-6.1-5.4-10.7c1.3-3.3,4.5-2.4,7-3.2c2,0.4,5.9-0.4,2.2,3.6c-1.3,1.4,0.6,1.8,1,2c2.5,1.1,3.9,3.4,4.3,5.6
	c0.5,2.9,3.9,2,4.4,4.2c0.8,3.5,3.3,1,4.9,1.6c0.8,0.6,1.1,1.6,1.5,2.4c1,1.9,2,3.6,4.6,1.7C250.1,172.6,250.8,173.5,251.2,174.2z"
	/>
<path class="st122" d="M262.2,139.9c0.8-1.9,3-2.2,4.2-3.6c0.6,0,1.2-0.1,1.9-0.1c2,12.3-1.6,24.6,0,36.9c-1.4,1.2-2.9,2.3-4.9,2.2
	c-1.7-0.9-2.1-2-2.4-4.2c-1-9.3,1.6-18.5,0-27.7C260.7,141.8,262.3,141.2,262.2,139.9z"/>
<path class="st123" d="M220,156.1c1.4,6.5,6.8,10.1,11.2,14.2c4.8,4.5,9.4,9.4,15.1,13c-1,1.4-2.9,1-4.1,1.8c-1.5-0.6-2.9,1.2-4.4,0
	c-4.9-5-9.7-10.2-15.4-14.3c-2.8-2-4.4-5.1-6.9-7.4c-1.3-1.2-2.8-3.5-1-5.8c0.2-0.8,2.1-0.3,1.5-1.8c0.2-0.7,0.7-1,1.4-1.1
	C218.5,154.6,219.3,155.3,220,156.1z"/>
<path class="st124" d="M268.2,173.1c-2.2-6.6-1.8-13.3-0.9-20c0.4-3.5,1-7.1,0.4-10.5c-0.4-2.4-0.4-4.3,0.6-6.4
	c1.3-1.7,3.1-2.9,5-3.9c0.1,8.5,0.9,17-0.6,25.4c-0.8,4.3-1,8.1,1.7,11.6C272.5,170.9,270.5,172.2,268.2,173.1z"/>
<path class="st125" d="M274.3,169.3c-4.3-1.8-4.3-5.8-3.4-9.1c1.9-6.9,1.2-13.9,1.2-20.9c0-2.5,0.3-4.7,1.1-7c1-0.7,2-1.4,2.9-2.2
	c0,0.4,0,0.8,0.1,1.2c-0.2,1.1-1.8,1.6-1.3,3c2.8,8.3,1.2,16.7,0.5,25.2c-0.2,2.6-0.7,5.4,0.9,7.9
	C276,168.3,275.4,169.1,274.3,169.3z"/>
<path class="st126" d="M238.2,185.2c1.3-0.5,2.6-1.7,3.9-0.2c-1.6,0.8-3.2,1.5-4.9,2.3c-2.7,0.6-5.3,1.3-8,1.9
	c-2.6-0.5-0.8-1.5-0.3-2.4c1.8-1,3.8-1.2,5.7-1.9C235.9,184.7,237.1,184.2,238.2,185.2z"/>
<path class="st127" d="M94.2,236.2c-1.4-0.1-2.7,0.4-3.8,1.3c-0.4-0.2-0.7-0.6-0.8-1.1c0-0.5,0-0.9,0.2-1.4c1.8-2.8,4.6-4.5,7.4-6.1
	c0.4-0.1,0.9-0.2,1.4-0.2c3.3,0,6.4-1.5,9.7-1.9c1.4-0.2,3.4-1.5,3.9,1.3c-1,0.4-1.9,0.9-2.9,1.3c-2.4,0.7-4.9,1.4-7,2.9
	C99.6,233.6,96.9,234.9,94.2,236.2z"/>
<path class="st128" d="M232.2,145.2c-1,1.7-2,3.3-3,5c-0.5,1.4-1.5,1.9-3,1.7c-2.5-1.9-0.5-2.7,0.9-3.6c0.4-2.3,2.4-2.4,4-3
	C231.6,145.2,231.9,145.2,232.2,145.2z"/>
<path class="st7" d="M240.2,141.2c-0.5,0.7-1,1.5-1.5,2.2c-0.2-0.4-0.3-0.8-0.5-1.2C238.7,141.6,238.8,140,240.2,141.2z"/>
<path class="st129" d="M161.2,222.3c1.6,1.8,4.1,0.9,6,1.9c-0.8,1.1-2,1-3.2,1c-11.5-0.3-23,0.7-34.5,1c-2.2,0-4.2,0.6-6.3,1.1
	c0,0-0.5,0-0.5,0l-0.5,0c-1.3,0.7-2.2,0.6-2.1-1.2c2.8-2.4,6.4-2.1,9.6-3.1c7.2-0.8,14.5-1.5,21.7-1.2c2,0,3.9,0.1,5.8-0.5
	C158.7,221.1,160.2,221.1,161.2,222.3z"/>
<path class="st130" d="M129.3,224c-2.8,1.5-6,1.5-9,2.3c-1.5,1.2-3,1.9-5,1.2c-1.1,0.2-2.1,0.4-3.2,0.6c-3.2-1.5-6.1,0.7-9.1,1.1
	c-1.6,0.2-3.1,1.4-4.8,0.2c1.3-3.5,4.3-4.5,7.5-5.3c6.9-1.8,13.9-3.5,21.2-3.3C130.6,221.3,131,221.8,129.3,224z"/>
<path class="st14" d="M115.3,227.5c1.7-0.4,3.3-0.8,5-1.2c0.4,0.8,1.2,0.9,2,0.9C120,228.4,117.7,229.5,115.3,227.5z"/>
<path class="st131" d="M215.3,143.3c1.6-0.7,3.3-1.3,4.9-2c2,1.3,0.8,3.3,0.9,4.9c-0.1,3.7-2.9,5.4-5.3,7.4
	c-2.1,1.5-4.4,1.7-6.9,1.8c-2.1-1.6-0.9-3.4-0.1-4.9c0.9-1.8,2.1-3.4,3.1-5.1C212.7,143.9,214.2,143.9,215.3,143.3z"/>
<path class="st132" d="M215.2,153.2c1.4-2.8,5.2-3.6,6-7c0.7,4.7,4.3,0.5,6,2c0,1.1-2.2,1.5-1,3c0.4,0.4,1,0.6,1.4,1.1
	c0.1,0.4-0.1,0.7-0.5,0.9c-2.3,1.2-5.6-0.2-7.1,3c-0.9-0.3-1.9-0.6-2.8-1C216.5,154.6,214.6,155.1,215.2,153.2z"/>
<path class="st133" d="M119.2,188.1c1-0.6,2-1.2,3-1.9c0.7,1.8,2.2,2.1,3.9,2.5c9.3,2.4,18.3,5.6,26.3,11c1.9,1.3,4.2,2.3,4.1,5.1
	c-2.4,2.4-5.8,2.5-8.8,3.4c-0.7,0.1-1.5,0.1-2.2,0c-1.4-0.1-2.6-0.6-3.5-1.7c-5.8-7.3-13.1-10.8-22.5-10c-3.7,0.3-4.6-2.4-5.1-5.4
	C115.2,189.1,117.9,189.6,119.2,188.1z"/>
<path class="st134" d="M114.3,191.3c2,6.3,7.7,3.7,11.8,4.5c6.4,1.3,11.9,3.7,15.8,9c0.9,1.3,1.7,2.4,3.4,2.5
	c-0.4,2.6-0.4,2.6-5,2.6c-5,0.6-8.2-2.9-12.1-5c-5.3-2.8-10.8-4.8-16.8-5.4c-2.5-0.3-3.8-1.7-3.4-4.4c0.4-0.5,0.8-0.9,1.2-1.4
	C111,192.8,112.7,192,114.3,191.3z"/>
<path class="st135" d="M149.6,173.3c0.2,0.1,0.4,0.2,0.7,0.2c7.2,3.2,14.2,6.6,20.8,10.9c4.9,3.2,8.8,7.4,13.1,11.2
	c0.8,0.7,0.8,1.8,0.3,2.7c-3,1.5-5.5,1.1-8.1-1c-4.9-3.9-9.7-8-15.1-11.1c-3.8-2.1-7.4-4.8-11.8-6c-2.6-0.7-4.3-2-2.6-5
	C147.5,174.4,148.4,173.7,149.6,173.3z"/>
<path class="st136" d="M184.2,198.2c-4.5-6-10.8-9.8-16.5-14.5c-5.5-4.4-13.3-4.2-17.5-10.2c1.3-0.5,2.6-1,4-1.5c1.3,0,2.5,0,3.8,0
	c1-0.5,1.8,0.1,2.7,0.6c5.2,3.1,9.3,7.7,14.4,11c5.4,3.6,11.3,7.2,12.7,14.5c-0.3,1.1-1,1.6-2.1,1.5
	C184.9,199.5,184.4,199,184.2,198.2z"/>
<path class="st137" d="M149.6,173.3c-0.8,0.7-1.5,1.5-2.3,2.2c-1.2,1.6-3,2.1-4.7,2.9c-2.7,1-5,3.1-8.2,2.6
	c-0.5-0.2-0.9-0.4-1.2-0.8c2.9-2.6,6.6-3.4,10-5C145.3,174.6,147.5,173.9,149.6,173.3z"/>
<path class="st137" d="M133.2,180.2c0.4,0,0.7,0,1.1,0c-0.3,2.7-2.5,2.8-4.5,3.2c-0.2-0.1-0.4-0.2-0.6-0.4c0-2,1.8-2.1,2.9-2.9
	C132.5,180.2,132.9,180.2,133.2,180.2z"/>
<path class="st138" d="M139.3,163.6c0,0.6,0,1.1,0,1.7c-0.9,1.2-1.9,1.3-3,0.1C137.4,165,137.8,163.4,139.3,163.6z"/>
<path class="st139" d="M108.1,195c1,2.4,2.7,2.8,5.4,3.2c4.6,0.6,9.3,2.3,13.3,4.7c2.4,1.4,7,0.5,7.2,5.3c0,0.9,1.3,0.1,2-0.1
	c1.5-0.4,3.3-1.1,4.2,1c-1.5,2.5-4.4,2.6-6.4,4.2c-1.2,0.8-2.6,1-4.1,0.8c-1.8-0.7-3.5-0.2-5.2,0.3c-2.1,0.3-3.7,0.1-3.3-2.7
	c0.2-1-0.2-2.6-1-2.4c-5.4,1.3-7.8-5.4-13.3-4.5c-2.4,0.4-5.9-1.5-4.9-5.7c0.1-0.3,0.1-0.6,0.2-0.8
	C104.2,197.2,106.2,196.1,108.1,195z"/>
<path class="st140" d="M156.4,204.3c-6.8-5.2-13.9-9.6-22.4-11.8c-3.7-0.9-7.3-2.8-11.3-3.1c-1-0.1-1-0.2-0.5-3.3
	c0.7-1.1,1.9-1.3,3-1.7c7.8,2.9,16,4.4,23.4,8.3c2.1,1.1,3.9,2.6,6.1,3.4c3.7,1.4,5.6,3.9,5.6,7.8
	C159.2,205.4,157.9,205.5,156.4,204.3z"/>
<path class="st141" d="M160.4,203.3c-0.3-0.1-0.9,0-0.9-0.2c-3.2-7.9-11.2-8.9-17.7-11.8c-4.9-2.2-9.9-4-15.3-4.7
	c-1.7-0.2-1-1.3-1.2-2.2c0.7-0.5,1.3-0.9,2-1.4c0.7,0,1.4,0,2.1,0c0,0-0.1,0.3-0.1,0.3c1.1,0.4,2.2-0.2,3.3,0.2
	c10.8,1.9,19.9,7.5,29.2,12.6c2.1,1.2,1.5,3,1.9,4.7c-0.1,1-0.5,1.8-1.2,2.5C161.7,203.8,161.1,203.8,160.4,203.3z"/>
<path class="st142" d="M45.5,302.2c-0.8,2.6-1.6,5.3-2.5,7.9c-1.5-2-0.7-4-0.3-6.2c1.5-7.3,2.9-14.5,4.4-21.8c0.2-1.4-0.4-3,1-4
	c0.7,0.5-1.8,3.7,1.8,2c0.5-0.2,0.5,1.8,0.4,3c-0.2,1.6-2.3,3.2-0.2,4.9c-0.3,1-0.5,2.1-0.8,3.1C47.2,294.6,46.4,298.4,45.5,302.2z"
	/>
<path class="st0" d="M41.1,309.1c-0.3,0.1-0.5,0.2-0.7,0.3c0.1-1.8-0.7-3.7,0.8-5.2C41.1,305.9,41.1,307.5,41.1,309.1z"/>
<path class="st143" d="M204.2,201.2c-8.5-0.1-16.6,2.4-25,2.9c0.1-2.8,2.2-3.6,4.3-3.8c3.8-0.4,7.4-1.7,11.2-1.9
	c0.7-0.2,1.4-0.2,2.1-0.2c3.7-0.5,7.5-1.2,11.2-1.2c1.8,0,3.7-0.5,5.1,1.1c-0.3,0.7-0.7,1.3-1,2
	C209.5,199.8,206.8,199.7,204.2,201.2z"/>
<path class="st144" d="M86.2,249.2c-2.3-0.9-4.3-3.6-7-1c-1.3-3.4,2-3.9,3.4-5.6c1.8-0.9,3.1-3.1,5.6-2.3c1.7,0,3.3-0.1,5-0.1
	c0.3,0.4,0.5,0.8,0.5,1.3c0.1,1.9-0.9,3.1-2.6,3.7C89,246.1,87.7,247.6,86.2,249.2z"/>
<path class="st145" d="M88.3,240.4c-1.7,0.9-3.3,1.9-5,2.8c0-4.5,2.3-6.9,6.9-7c0.1,0.4,0.2,0.8,0.4,1.3
	C89.7,238.4,89,239.4,88.3,240.4z"/>
<path class="st146" d="M93.2,241.2c0-0.3,0-0.7,0-1c0.3,0.3,0.7,0.7,1,1c0,0,0,0,0,0C93.9,241.7,93.6,241.7,93.2,241.2z"/>
<path class="st147" d="M102,199.1c1.9,2.3,2.6,6.5,7.4,4.2c0.9-0.4,3.6,0.6,3.9,1.5c1,3.2,3.2,3.2,5.7,2.9c3.5-0.4,4.2,1.4,3.5,4.4
	c-0.3,1.1-0.1,1.1,1.8,1.2c0.5,0.4,1.3,0.6,1.3,1.5c-0.5,1.5-1.8,2-3.1,2.5c-1.7,0.5-3.3,1.5-5.2,1.7c-2.5-0.1-4.7,2.6-7,1.7
	c-3.5-1.3,0.3-4.2-0.9-6.5c-1.3-2.7-3.2-3.3-5.7-2.9c-3.9,0.6-7-0.3-9.6-3.3c-0.6-0.5-0.9-1.1-1.1-1.8c1.4-1.4,2.8-2.7,4.2-4.1
	C98.8,201.1,100.4,200.1,102,199.1z"/>
<path class="st148" d="M222.3,191.3c-0.4,0.9-1.3,0.8-2,1.1c-0.5,0.5-1.2,0.8-1.9,0.8c-6.1-2.6-10.4-7.6-14.8-12.2
	c-3.3-3.5-6.8-6.7-10.3-10c-2.5-2.3-6.6-4.4-3.7-9.1c0.8-0.6,1.7-0.7,2.6-0.6c5.7,2.3,8.9,7.6,13.1,11.6c2.9,2.8,5.7,5.4,9.2,7.2
	c1.8,2.7,4.8,4.2,6.4,7.1C221.7,188.5,222.5,189.7,222.3,191.3z"/>
<path class="st149" d="M222.3,191.3c-2.6-2.4-2.6-7.2-7.2-8c-1.1-0.2-0.8-1.9-0.9-3.1c-4.8-4.3-9.9-8.1-13.3-13.7
	c-2.3-3.9-1.5-5.3,3.2-6c6.4,8.3,13.8,15.6,21.7,22.4c1.3,1.1,3.8,1.7,3.3,4.3c-0.1,0.7-1.1,1.4,0.1,2.1c-0.7,0.3-1.4,0.7-2.1,1
	C225.6,190.6,223.9,190.9,222.3,191.3z"/>
<path class="st150" d="M213.2,198.2c-5.3,0.3-10.7,0.6-16,1c-0.6-0.6-0.6-1.3-0.3-2.1c0.9-1,2.1-1.3,3.3-1.7
	c0.9-0.3,1.9-0.4,2.9-0.6c1.7-0.3,3.4-0.8,5.1-0.5c6,0.1,12-0.9,18-1.2c2,0,4,0,6-0.1c3.9,1.2,8.2-1.5,12,1
	c-5.3,0.7-10.6,1.3-15.9,2c-1.1,0.1-2.3-0.1-3.1,1c-1,0.3-2,0.7-3,1c-2.3-1.1-4.7,0.2-7,0C214.6,198.2,213.9,198.2,213.2,198.2z"/>
<path class="st64" d="M226.2,193.2c-6,0.8-11.7,3.6-18,2.1c0.3-1.1,1.1-1.7,2.1-2c2.6-1,5.4-0.5,8-1c0.6,0,1.3,0,1.9,0
	C222.1,194,224.3,192.9,226.2,193.2z"/>
<path class="st151" d="M90.1,236.2c-3.4,1.3-5.7,3.5-6.9,7c-0.9,2-4,2.2-4.1,5c-0.3-0.1-0.7-0.1-1-0.2c-0.7-3.4,1.2-6.5,1-9.8
	c0.6-1.3,1.1-2.7,0-4c-2.9,0.8-3.2-3-5.7-3.2c-0.8-0.1-1.5-1.2-2.3-1.8c0.6-1,1.3-2,1.9-3.1c0.6-1.3,2.1-2.1,2.1-3.7
	c1.3-1.1,2.7-2.1,4-3.2c3.3,0.1,4.4,1.9,5.7,4.9c1.6,3.7,4.7,6.8,5.2,11.1C90.2,235.6,90.1,235.9,90.1,236.2z"/>
<path class="st152" d="M93.2,241.2c0.3,0,0.6,0,1,0c-0.1,1.4,0.3,2.7,1,4c-0.9,0.6-1.8,1.2-2.6,1.9c-1.4,1.2,0.1,0.9,0.6,1.1
	c-1.5,1.1-3,2.2-5,1.8c-0.7-0.3-1.3-0.6-2-0.8c-0.3-2.6,1.3-3.9,3.4-4.6C91.4,244,93.2,243.6,93.2,241.2z"/>
<path class="st153" d="M93,206.1c0.4,0.4,0.8,0.8,1.3,1.1c-0.1,1.1-0.9,1.8-1.3,2.6c-0.9,1.6,0.2,1.2,1.2,1.6c2,0.9,4.1,2.1,4.5,4.9
	c0.5,3.8,1.9,7,6.8,6.3c0.6-0.1,1.1,0.7,1.3,1.3c0,0.5-0.2,0.9-0.6,1.2c-3.4,0-5.2,2.8-7.8,4.1c0,0,0-0.2,0-0.2
	c-5.1,0.9-5.8,0.4-7-4.4c-0.7-3.1-3.3-4.8-5.4-6.9c-0.9-0.9-2.4-1.2-2.7-2.7c0.1-2.1,2.8-2.1,3.3-3.8c0.7-0.7,1.3-1.3,2-2
	c1.3-1.1,2.5-2.2,3.8-3.2C92.5,206.1,92.7,206.1,93,206.1z"/>
<path class="st154" d="M196.1,147.9c0,0.5,0.1,0.9,0.1,1.4c-0.5,3.5-3.9,4.2-6,6.1c-1.1,0.9,0.9,1,0.2,1.6
	c-3.2,2.9-6.7,4.8-11.2,4.1c3.5-4.6,7.3-8.8,12.9-10.9c0.1,0,0.3-0.2,0.3-0.3c-0.1-0.3-0.3-0.5-0.4-0.8
	C193.2,148,194.7,148.2,196.1,147.9z"/>
<path class="st155" d="M179.2,161.1c3.7-1.5,7.7-2.4,11-4.8c1-1.2,2.2-2.1,3.8-1.3c0.9,2.5-1.2,3-2.6,3.8c-1.4,0.8-3,1.1-3.4,3
	c-1.4,1.2-3,1.6-4.8,1.7c-1.6,0-3.2,0.7-4.8,0.9c-0.9,0.1-2.4,0.8-2.4-1.2c0-0.3,0-0.6,0.1-0.9C177.3,161.9,178.3,161.5,179.2,161.1
	z"/>
<path class="st156" d="M161.2,222.3c-1.4,0.1-2.7,0.1-4.1,0.2c-0.4,0.2-0.8,0.1-1.2-0.1c-2.3-0.8-4.7-0.2-7-1
	c-1.8-1.9-4.2-2.3-6.7-2.6c-1.7-0.2-3.9,0-3.6-2.8c2.5-2.6,5.8-2.7,9-2.9c0.5,0,0.9,0.1,1.4,0.2c3.1,0.4,6.2,0.3,9.2,1.1
	c3.8,1,6.7,2.8,5.8,7.5C163.2,222,162.2,222.2,161.2,222.3z"/>
<path class="st157" d="M164.1,221.9c-1.2-5.3-4.8-6.9-9.8-6.8c-1.7,0-3.4-0.5-5.1-0.8c0.3-3.3,3-2.8,5.1-3.1
	c2.9-0.4,5.9-0.1,8.4-2.1c1.6-0.3,3.1-0.7,4.6,0.1c0.4,2.1-0.2,4.4,2.9,5.4c1.8,0.6,1.8,2.9,1.3,4.7c-0.4,1.7-2.8,0.4-3.2,2.1
	C167.1,222.3,165.6,222.2,164.1,221.9z"/>
<path class="st158" d="M168.4,221.3c-0.5-0.1-0.9-0.3-1.4-0.4c0.3-0.3,0.5-0.8,0.9-0.9c1.1-0.3,2.2-0.5,3.3-0.8c2.7-2.6,5.3-1.5,8,0
	c0,0.3,0,0.7,0,1C175.7,221.7,172,221.1,168.4,221.3z"/>
<path class="st159" d="M215.2,198.2c2.3-1.5,4.7-1.5,7,0C219.9,198,217.6,200.2,215.2,198.2z"/>
<path class="st160" d="M83.1,215.2c3.4,1.1,5.4,4,8.1,6.1c0.9,0.7,1.1,1.6,1.3,2.6c0.9,4.3,1.3,4.7,5.7,5.3c-2.7,2-5.3,4-8,6.1
	c-1.3-1.5-3.9-2.3-2.6-5.2c0.3-0.6,0.4-2.2-1.7-1.8c-1.2,0.3-2.4-2-2.3-2.7c1-4-2.1-4.8-4.3-6.3c0-0.3,0-0.6,0.1-1
	C80.6,217.2,81.8,216.2,83.1,215.2z"/>
<path class="st161" d="M179.2,219.2c-2.7,0-5.3,0-8,0c-0.2-2.2-0.9-3.8-3.3-4.7c-2.7-1-2.7-3.2-0.7-5.2c1-0.2,2-0.3,3,0
	c4.7,1.7,8.8,4.2,11,9C180.8,219,180.1,219.2,179.2,219.2z"/>
<path class="st162" d="M215.3,143.3c-0.6,1-2.2,1.3-2.1,2.9c-3.6,2-7.1,4.2-10.9,5.9c-1.4,0.6-2.8,1.3-4.3,0.3
	c-1.3-3.2,2.2-2.7,3.2-4.1c2.3-1,4.7-2,7-3C210.5,144.3,212.7,143.1,215.3,143.3z"/>
<path class="st163" d="M201.2,148.2c0.3,2.3-3.4,1.7-3,4.1c-0.3,2.5-2.1,2.7-4,2.8c-1.3,0.4-2.7,0.7-4,1.1c-0.5-0.2-2.1,0.1-0.7-1.2
	c2.2-2,4.4-3.9,6.6-5.8C197.9,148.9,199.6,148.6,201.2,148.2z"/>
<path class="st164" d="M170.2,209.2c-1,0.6-2,0.6-3,0c-1.3,0-2.7,1-4,0c-2.5,0.7-4.9,1.3-7.4-0.2c-0.4-0.6-0.4-1.3-0.2-2
	c0.8-1.7,2.4-1.7,3.8-1.7c5.2-0.1,10.5-1.4,15.8-0.1c0.4,0.8,1.2,1,2,1C175.6,208.8,172,206.9,170.2,209.2z"/>
<path class="st165" d="M175.2,205.2c-6.3,1.4-12.8,0.1-19,2c-4.4,2.8-6.4,2.8-9,0.1c3.1-1,6.1-2,9.2-3c1.4-0.1,2.9,0.1,4-1
	c0.6-0.1,1.2-0.2,1.8-0.2c1.2-0.8,2.4-1.5,3.8-1.8c1.6-0.3,3.2-0.8,4.8-1.1c0.7-0.1,1.4-0.1,2.1,0c0.4,0.1,0.9,0.2,1.3,0.3
	c1.2,1.4,5-0.2,4,3.6C177.2,204.3,175.9,204,175.2,205.2z"/>
<path class="st166" d="M178.3,204.2c0.1-3-3.8-0.3-4-2.8c3.1-3.6,7.2-2,11-2.2c0.8,0.1,1.6,0,2.1-0.9c1.3-1.4,2.9-1.3,4.5-1
	c1.3,0.4,2.6,0.8,3.4,1.9c-3.2,1.6-6.7,1.1-10.1,1.9c-2.3,0.6-4.5,1-6,3c0,0-0.5,0-0.5,0L178.3,204.2z"/>
<path class="st167" d="M79.2,234.2c3,1.3,0.7,2.7,0,4C79.2,236.9,79.2,235.6,79.2,234.2z"/>
<path class="st168" d="M176.2,163.2c2.6,1.2,4.6-1.5,7-1c0.5,0.8,2.2,0.1,2.2,1.6c-2.2,2.6-5.6,2.3-8.3,3.6
	c-2.3,0.4-4.6,1.7-6.9-0.1c0.7-0.7,1.3-1.4,2-2.1C173.4,164.2,174.3,162.8,176.2,163.2z"/>
<path class="st169" d="M170.2,167.3c2.5,0.6,4.6-1.4,7-1.1c5.3,0.5,7.7,5.2,11.3,8c5.7,4.5,9.8,10.9,15.4,15.5
	c2.9,2.4,0.9,4.3-0.7,6.2c-1,0.1-2,0.3-2.9,0.4c-3.7,0.7-5.9-1.2-8.3-3.9c-7-7.6-13.8-15.5-23.4-20.2c-1.5-0.7-0.6-2.7-2.3-3
	c0.1-0.3,0.2-0.5,0.2-0.8C167.9,168.5,169.1,168.1,170.2,167.3z"/>
<path class="st170" d="M166.3,169.2c7,3,12.3,8.3,17.8,13.3c3.7,3.3,7.4,6.5,10,10.9c1.4,2.5,4.5,1.2,6.3,3c-1,0.4-2.1,0.7-3.1,1.1
	c-0.6,0.7-1.2,1.4-2.3,1c-3.3-1.3-5.7-3.7-8.2-6.2c-7.8-7.7-15.8-15.2-26.4-18.9c-0.7-0.4-1.5-0.7-2.2-1.1
	C160.6,170.7,163.4,169.9,166.3,169.2z"/>
<path class="st171" d="M227.5,152.4c-0.4-0.4-0.8-0.8-1.3-1.2c1-0.3,2-0.7,3-1c2.5,0.7,4.4-2.5,7-1c0,0.3,0,0.5,0,0.8
	c-0.4,1-1.3,1.5-2.2,2C231.9,153,229.7,153,227.5,152.4z"/>
<path class="st172" d="M234.3,151.4c0.6-0.4,1.3-0.9,1.9-1.3c3-0.9,6-1.8,9-2.8c0.5,0.2,0.8,0.5,1,1c1.8,1.3,1.7,3.4,2.2,5.2
	c0.9,3.7,2.5,7.4,0.4,11.3c4.7,2.2,2.3,6.1,2.4,9.5c-1.8-1.9-2.5,1.2-4.3,0.9c-3.8-0.7-3.1-3.5-3.7-5.9c-2.3-4.2-6.3-7.6-6.1-13
	C237.2,154.1,232.8,154.5,234.3,151.4z"/>
<path class="st173" d="M246.2,148.2c-0.3-0.3-0.7-0.6-1-1c1-0.4,1.9-0.7,2.9-1.1c0.4,0.2,0.8,0.3,1.3,0.5
	C248.7,147.9,247.4,148.1,246.2,148.2z"/>
<path class="st174" d="M234.3,151.4c5.5,2.2,3.8,8.2,6.3,12.1c1.1,1.6,5,2.4,2.7,5.8c-2,1.1-4.2,3.5-5.5-0.7
	c-0.2-0.7-0.3-1.1-1.1-1.4c-3.4-0.9-4.5-3.4-5-6.6c-0.2-1.3-2.1-1.1-3-2.4c-1.7-2.2-2.2-2,0-3.9c0.6-0.6,1.2-0.7,0-1
	c-0.5-0.1-1-0.1-1.5-0.1c0.1-0.3,0.3-0.5,0.4-0.8C229.8,152.1,232,151.7,234.3,151.4z"/>
<path class="st175" d="M238.2,185.2c-1,0.3-2,0.7-3,1c-6.2-1.9-10.4-6.7-14.8-10.9c-1.7-1.6-3.3-3.5-5.2-5c-3.5-2.7-5.8-6.6-8.8-9.8
	c-0.9-0.3-1.8-0.5-2.4-1.3c0.3-2.3,2.4-2,3.9-2.7c0.9-0.2,1.9-0.3,2.8-0.1c1.4,0.6,3.1,0.1,4.5,0.8c-2,2.4,0.8,5.5,1.2,5.7
	c4.1,2.9,6.9,7.2,10.8,10.3C231.4,176.6,235.9,180.1,238.2,185.2z"/>
<path class="st176" d="M211.2,157.2c-1,0-2,0.1-3,0.1c-0.6-0.6-0.6-1.3-0.3-2.1c0.4-0.4,0.8-0.5,1.3,0c1.6-1.9,4.2-0.8,6-2
	c0.7,0.7,1.3,1.3,2,2c-0.4,0.3-0.8,0.6-1.2,0.9C214.6,157.2,213,157.4,211.2,157.2z"/>
<path class="st177" d="M211.2,157.2c1.5-0.9,3.1-1.2,4.8-1.2c0.2,0.2,0.4,0.5,0.6,0.7c-0.4,0.2-0.9,0.3-1.3,0.5
	C213.9,157.7,212.6,159,211.2,157.2z"/>
<path class="st178" d="M207.2,159.2c2.9,2.2,4.1,5.8,7,8.3c7.1,6.2,13.4,13.2,21,18.7c-2,0.3-3.9,1.4-6,1
	c-5.6-4.8-10.8-10.1-16.3-15c-3.8-3.3-5.9-7.3-8.7-11C203.9,158.6,206.6,160.5,207.2,159.2z"/>
<path class="st179" d="M139.2,216.2c1.2,2.1,3.3,1.5,5.2,1.6c2.3,0.1,4.3,0.7,4.8,3.4c-2.7,0.8-5.3,0.7-8,0.1c3.5,1,7.1,0,10.6,0.5
	c0.6,0.4,0.7,0.8,0.1,1.3c-7.6-0.8-15.1,1.2-22.6,0.9c0.3-0.7,0.9-1.4,0.1-2c-0.8-0.6-1.4,0-2.1,0.2c-1.4-3.9,3.5-2.8,4.1-5.2
	C133.8,214.9,136.4,214.4,139.2,216.2z"/>
<path class="st14" d="M151.9,223.1c0.2-0.3,0.3-0.5,0.5-0.8c1.3-0.9,2.6-0.8,3.9-0.1c0.3,0.1,0.6,0.2,0.9,0.3
	C155.5,223.8,153.7,223.1,151.9,223.1z"/>
<path class="st180" d="M132.2,218.2c-0.7,2.6-5,0.5-5,4c-7.3-0.9-14.2,1.1-21.2,3c0-0.3,0.1-0.7,0.1-1c2.9-3.4,6.9-4.9,11-6
	c1.7-0.6,3.4-1.3,5-1.9c2.4,0.7,4.8-0.6,7.3-0.3C131.3,216.2,131.6,217.2,132.2,218.2z"/>
<path class="st181" d="M209.2,155.2c-0.3,0-0.7,0-1,0c-2.8-0.4-3.7,2.8-6.1,3.2c-1-1-1.7-2.1-2.4-3.3c-0.5-2.2,1.3-2.8,2.5-3.9
	c3.4-2.3,6.8-4.5,11-5C211.9,149.2,208.2,151.2,209.2,155.2z"/>
<path class="st182" d="M147.3,207.3c3,2.2,6-0.1,9-0.1c0,0.7,0,1.3,0,2c-3.3,2.3-7.6,1.5-10.9,3.9c-4.1,0.8-8.2,1.4-12.1-0.9
	c2.3-1,4.7-2.1,7-3.1c1.7-0.7,3.9,0.2,5.1-1.8C146,207.3,146.6,207.3,147.3,207.3z"/>
<path class="st183" d="M185.2,199.2c-3.7,0.7-7.3,1.5-11,2.2c-0.3-0.1-0.7-0.2-1-0.3c-8-9.8-18.9-14.7-30.6-18.4
	c-5.2-1.6-1.3-3.3-0.3-5.1c1.6-0.7,3.3-1.5,4.9-2.2c0.8,1-0.9,2.8,1.6,3.6c6.4,1.9,12.2,5.2,17.5,9.3c2.8,2.2,5.6,4.4,8.3,6.7
	c2.7,2.2,5.8,3.9,9.5,3.2C184.6,198.5,184.9,198.9,185.2,199.2z"/>
<path class="st184" d="M160.2,173.2c5.1-0.7,9.1,2.3,12.4,5.2c5.5,4.9,12.3,8.4,16.5,14.9c1.3,2,4.1,3.2,6.2,4.7
	c-0.9,1.1-1.9,0.7-2.9,0.3c-1.7,0-3.3,0-5,0c-3.3-6.8-8.3-11.8-15.3-14.7c-3.2-1.3-3.9-4.8-6.9-6.3
	C163.3,176.4,160.8,175.8,160.2,173.2z"/>
<path class="st185" d="M142.3,177.7c1.5,2-2.5,1.7-1.2,3.7c6.8,0.1,12.1,4.4,18.1,7.1c4,1.8,7.5,4.3,11,6.9c2,1.5,2,3.9,3,5.8
	c-0.7,0.1-1.3,0.1-2,0.2c-7-2.5-12.3-7.9-19-11.2c-6.4-3.1-12.6-6.3-20.1-5.9c-1.1,0-2.2,0.2-3-0.9c1.7-1,3.4-2.1,5.1-3.1
	C137.3,180.3,139.5,178,142.3,177.7z"/>
<path class="st186" d="M133.2,212.2c4.3,0,8.7,0,13,0c2.1-0.8,2.8-0.1,2,2c-3.2-0.2-6,1.3-9,2c-2.5,0.2-5.3-0.8-7,2
	c-1.9-1.8-4.1-1.1-6.3-1c-1.4,0.1-2.9,1.1-3.7-1c1-0.7,2-1.4,3-2c1.2-0.7,2.3-1.9,3.9-1.2C130.6,213.1,132.1,213.6,133.2,212.2z"/>
<path class="st187" d="M129.1,213.1c-1.3,0.4-2.6,0.8-3.9,1.2c-0.3-0.3-0.7-0.7-1-1C125.9,213.5,127.4,211.2,129.1,213.1z"/>
<path class="st188" d="M132.2,184.2c1.3-1.5,2.7-1.7,4.8-1.2c11.5,2.9,21.5,8.8,30.8,15.8c1.1,0.8,3.1,0.5,3.4,2.4
	c-1.7,0.3-3.2,1.3-5,1c-0.9-0.7-2.3,0.2-3-1c-1.1-2.3-2.4-4.1-4.8-5.6C150.2,190.5,141.4,187.1,132.2,184.2z"/>
<path class="st189" d="M163.2,201.2c1.1,0.1,2.3-0.2,3,1c-1.3,0.6-2.5,1.1-4,0.9C162.3,202.3,162.5,201.6,163.2,201.2z"/>
<path class="st190" d="M192.3,198.3c1-0.1,2-0.2,2.9-0.3c0.7-0.2,1.3-0.4,2-0.6c0,0.6,0,1.2,0,1.8c-0.7,0-1.3,0-2,0.1
	C194.2,199.2,193,199.4,192.3,198.3z"/>
<path class="st191" d="M117.2,218.2c-3.7,2-7.3,4-11,6c-0.4-0.3-0.8-0.8-1.2-0.8c-5.2,0-6.9-1.6-7.4-7.4c-0.2-2.2-2.1-2.3-3.4-2.9
	c-4.4-2.1-3.7-3.9,0-5.9c2.9,1,5.1,4.1,8.6,3.2c4-1,7.6,0.9,8.4,4.5c0.4,1.9-1,3-1.5,4.5C112.6,220.8,114.3,216.1,117.2,218.2z"/>
<path class="st192" d="M218.4,192.3c-2.6,1.2-5.3,1.9-8.2,2c-4.3-7.1-11.3-11.6-16.7-17.7c-2.4-2.7-5-5.4-7.8-7.7
	c-2.7-2.3-1.6-3.7,0.1-5.5c0.6-1.1,1.8-1.3,2.8-1.5c0.2,0.2,0.3,0.3,0.5,0.5c1.1,6.5,7,8.9,10.9,13
	C205.8,181.5,211.4,187.6,218.4,192.3z"/>
<path class="st193" d="M207.2,159.2c-1,0.7-2,1.3-3,2c-3.5-0.1-4.4,1.2-2.4,4.4c2.8,4.5,6.4,8.3,10.6,11.4c1.3,1,1.7,1.9,1.8,3.2
	c-4.1,0.4-6.2-2.6-8.6-5.1c-4.3-4.5-8.2-9.6-13.6-12.9c0.3-2.3,2.4-2,3.9-2.6c1.3-0.4,2.7-0.6,4.1-0.9c0.7-0.2,1.4-0.2,2.1,0.1
	c0.7,0.1,1.4,0,1.9,0.5C205.1,159.2,206.1,159.2,207.2,159.2z"/>
<path class="st194" d="M196.2,159.9c-0.8,1.9-3.2,0.8-4.2,2.2c-1,0.1-1.9,0.2-2.9,0.3c0,0,0.1-0.4,0.1-0.4c-0.5-0.1-0.8-0.4-1-0.9
	c-1-1.7,0.4-2.1,1.5-2.7c1.6-0.9,3.7-1.2,4.5-3.3c1.3-0.9,2.7-1.9,4-2.8c1.3-0.4,2.7-0.8,4-1.1c-0.5,1.4-2.1,2.3-2,4
	c0.1,1.5-0.7,2.5-1.6,3.5C197.9,159.3,197.1,159.6,196.2,159.9z"/>
<path class="st195" d="M186.2,163.3c-2.6,5.2,2.6,7.1,4.9,9.3c5.6,5.4,10.8,11.3,16.7,16.2c2,1.6,2.5,3.2,2.4,5.5
	c-0.7,0.3-1.3,0.7-2,1c-1.7,0.2-3.4,0.4-5,0.6c1.2-3.1,0.2-4.8-2.3-7.4c-2.5-2.6-6-4.5-7.8-8.4c-1-2.1-4.2-5.3-7.7-6.6
	c-2.4-0.9-2-4.7-5.2-5.2c-0.5-0.1-2.4-0.8-3-2.2c2.7-1,5.4-1.9,8-2.9C185.6,162.9,185.9,162.9,186.2,163.3z"/>
<path class="st196" d="M186.2,163.3c0,0-0.5-0.1-0.5-0.1s-0.5,0-0.5,0c-0.8-0.1-1.6-0.2-2-1c1.7-0.3,3.3-0.7,5-1
	c0.3,0.3,0.7,0.6,1,0.9C188.2,162.5,187.2,162.9,186.2,163.3z"/>
<path class="st197" d="M148.2,214.2c0-1.3-0.7-2-2-2c2.5-3.9,6.8-1.7,10-3c2.3-0.4,4.7-0.9,7,0c-1.5,3.7-4.9,2.6-7.7,2.9
	c-2.3,0.3-4.7,0-6.3,2.1C148.9,214.2,148.6,214.2,148.2,214.2z"/>
<path class="st198" d="M156.2,222.2c-1.3,0-2.6,0.1-3.9,0.1c-3.6,0-7.3,0-10.9,0c0-0.4,0-0.7-0.1-1.1c2.6,0,5.2,0,7.8,0
	C151.6,220.9,154.2,219.5,156.2,222.2z"/>
<path class="st199" d="M204,159.1c-0.6,0-1.2-0.1-1.8-0.1l-0.3-0.4l0.3-0.4c1.7-1.6,1.7-6.7,6-3c0,0.7,0,1.4,0,2.1
	C206.8,157.9,205.4,158.5,204,159.1z"/>
<path class="st200" d="M202.2,158.2c0,0.3,0,0.5,0,0.8c-0.6,0.1-1.3,0.2-1.9,0.3c-0.8-0.1-1.6-0.3-2-1.1c0.7-1,1.3-2,2-3
	C202.3,155.3,202.2,156.8,202.2,158.2z"/>
<path class="st201" d="M198.2,158.2c0.9,0.1,1.6,0.2,2,1.1c-1.2,0.9-2.6,1-4,0.6C196.9,159.4,197.6,158.8,198.2,158.2z"/>
</svg>
