<?xml version="1.0" encoding="utf-8"?>
<!-- Generator: Adobe Illustrator 21.1.0, SVG Export Plug-In . SVG Version: 6.00 Build 0)  -->
<svg version="1.1" id="Layer_1" xmlns="http://www.w3.org/2000/svg" xmlns:xlink="http://www.w3.org/1999/xlink" x="0px" y="0px"
	 viewBox="0 0 800 800" style="enable-background:new 0 0 800 800;" xml:space="preserve">
<style type="text/css">
	.st0{fill:url(#SVGID_1_);}
	.st1{fill:url(#SVGID_2_);}
	.st2{fill:url(#SVGID_3_);}
	.st3{fill:url(#SVGID_4_);}
	.st4{fill:url(#SVGID_5_);}
	.st5{fill:url(#SVGID_6_);}
	.st6{fill:url(#SVGID_7_);}
	.st7{fill:url(#SVGID_8_);}
	.st8{fill:url(#SVGID_9_);}
	.st9{fill:url(#SVGID_10_);}
	.st10{fill:url(#SVGID_11_);}
	.st11{fill:url(#SVGID_12_);}
	.st12{fill:url(#SVGID_13_);}
	.st13{fill:url(#SVGID_14_);}
</style>
<g>
	
		<linearGradient id="SVGID_1_" gradientUnits="userSpaceOnUse" x1="-18.7781" y1="697.7287" x2="-18.7781" y2="696.4509" gradientTransform="matrix(27.7043 0 0 -270.8171 850.0391 189130.3125)">
		<stop  offset="0" style="stop-color:#F6871F"/>
		<stop  offset="0.2393" style="stop-color:#F57E20"/>
		<stop  offset="0.6262" style="stop-color:#F36621"/>
		<stop  offset="1" style="stop-color:#F04923"/>
	</linearGradient>
	<path class="st0" d="M343.7,428.1L339,257.8c0-5.3-4.4-9.3-9.3-9.3c-5.3,0-9.3,4-9.3,9.3L316,428.1l4.4,81.9c0,5.3,4.4,9.3,9.3,9.3
		c5.3,0,9.3-4,9.3-9.3L343.7,428.1z"/>
	
		<linearGradient id="SVGID_2_" gradientUnits="userSpaceOnUse" x1="-18.7699" y1="697.6982" x2="-18.7699" y2="696.4463" gradientTransform="matrix(27.393 0 0 -276.4202 810.5056 193031.3438)">
		<stop  offset="0" style="stop-color:#F6871F"/>
		<stop  offset="0.2393" style="stop-color:#F57E20"/>
		<stop  offset="0.6262" style="stop-color:#F36621"/>
		<stop  offset="1" style="stop-color:#F04923"/>
	</linearGradient>
	<path class="st1" d="M310,428.1l-5.3-176.8c0-5-4-8.7-8.7-8.7c-4.7,0-8.7,3.7-8.7,8.7l-4.7,176.5l4.7,82.5c0,5,4,8.7,8.7,8.7
		c4.7,0,8.7-3.7,8.7-8.7L310,428.1z"/>
	
		<linearGradient id="SVGID_3_" gradientUnits="userSpaceOnUse" x1="-18.7441" y1="697.7116" x2="-18.7441" y2="696.4468" gradientTransform="matrix(26.4591 0 0 -273.6187 726.4592 191080.3594)">
		<stop  offset="0" style="stop-color:#F6871F"/>
		<stop  offset="0.2393" style="stop-color:#F57E20"/>
		<stop  offset="0.6262" style="stop-color:#F36621"/>
		<stop  offset="1" style="stop-color:#F04923"/>
	</linearGradient>
	<path class="st2" d="M237.5,252.5c-0.3-4-3.4-7.5-7.5-7.5c-4,0-7.2,3.1-7.5,7.5l-5.3,175.3l5.3,83.7c0,4,3.4,7.2,7.5,7.2
		c4,0,7.2-3.1,7.5-7.5l6.2-83.7L237.5,252.5z"/>
	
		<linearGradient id="SVGID_4_" gradientUnits="userSpaceOnUse" x1="-18.7529" y1="697.6777" x2="-18.7529" y2="696.4438" gradientTransform="matrix(26.7704 0 0 -280.4669 765.3696 195848.9688)">
		<stop  offset="0" style="stop-color:#F6871F"/>
		<stop  offset="0.2393" style="stop-color:#F57E20"/>
		<stop  offset="0.6262" style="stop-color:#F36621"/>
		<stop  offset="1" style="stop-color:#F04923"/>
	</linearGradient>
	<path class="st3" d="M271.1,246.6c0-4.4-3.7-8.1-8.1-8.1c-4.4,0-8.1,3.4-8.1,8.1l-5,181.2l5,83.1c0,4.4,3.7,8.1,8.1,8.1
		c4.4,0,7.8-3.4,8.1-8.1l5.6-83.1L271.1,246.6z"/>
	
		<linearGradient id="SVGID_5_" gradientUnits="userSpaceOnUse" x1="-18.6867" y1="698.4355" x2="-18.6867" y2="696.5221" gradientTransform="matrix(24.5914 0 0 -180.856 561.4786 126489.7266)">
		<stop  offset="0" style="stop-color:#F6871F"/>
		<stop  offset="0.2393" style="stop-color:#F57E20"/>
		<stop  offset="0.6262" style="stop-color:#F36621"/>
		<stop  offset="1" style="stop-color:#F04923"/>
	</linearGradient>
	<path class="st4" d="M101.5,516.8c2.5,0,4.4-1.9,4.7-4.7l8.1-84.4l-8.1-87.2c-0.3-2.5-2.2-4.7-4.7-4.7s-4.4,1.9-4.7,4.7l-7.2,87.2
		l7.2,84.4C96.8,514.9,99,516.8,101.5,516.8z"/>
	
		<linearGradient id="SVGID_6_" gradientUnits="userSpaceOnUse" x1="-18.8016" y1="697.5717" x2="-18.8016" y2="696.4314" gradientTransform="matrix(28.6381 0 0 -303.502 901.7124 211887.7969)">
		<stop  offset="0" style="stop-color:#F6871F"/>
		<stop  offset="0.2393" style="stop-color:#F57E20"/>
		<stop  offset="0.6262" style="stop-color:#F36621"/>
		<stop  offset="1" style="stop-color:#F04923"/>
	</linearGradient>
	<path class="st5" d="M377.6,428.1l-4.4-202.3c0-3.4-1.9-6.5-4.7-8.4c-1.6-0.9-3.4-1.9-5.6-1.9c-1.9,0-3.7,0.6-5.6,1.6
		c-2.8,1.9-4.7,5-4.7,8.4v1.9l-3.7,200.5l3.7,81.2v0.3c0,2.2,0.9,4.4,2.5,5.9c1.9,2.2,4.7,3.7,7.8,3.7c2.8,0,5.3-1.2,7.2-2.8
		c1.9-1.9,3.1-4.4,3.1-7.2l0.3-8.1L377.6,428.1z"/>
	
		<linearGradient id="SVGID_7_" gradientUnits="userSpaceOnUse" x1="-18.6867" y1="698.4958" x2="-18.6867" y2="696.5351" gradientTransform="matrix(24.5914 0 0 -176.4981 593.2297 123456.6016)">
		<stop  offset="0" style="stop-color:#F6871F"/>
		<stop  offset="0.2393" style="stop-color:#F57E20"/>
		<stop  offset="0.6262" style="stop-color:#F36621"/>
		<stop  offset="1" style="stop-color:#F04923"/>
	</linearGradient>
	<path class="st6" d="M138.5,346.8c-0.3-3.1-2.5-5.3-5.3-5.3c-2.8,0-5.3,2.2-5.3,5.3l-6.5,80.9l6.5,85c0.3,3.1,2.5,5.3,5.3,5.3
		c2.8,0,5.3-2.2,5.3-5.3l7.5-85L138.5,346.8z"/>
	
		<linearGradient id="SVGID_8_" gradientUnits="userSpaceOnUse" x1="-18.7068" y1="697.9944" x2="-18.7068" y2="696.4798" gradientTransform="matrix(25.214 0 0 -228.4825 637.4318 159652.9375)">
		<stop  offset="0" style="stop-color:#F6871F"/>
		<stop  offset="0.2393" style="stop-color:#F57E20"/>
		<stop  offset="0.6262" style="stop-color:#F36621"/>
		<stop  offset="1" style="stop-color:#F04923"/>
	</linearGradient>
	<path class="st7" d="M165.3,290.2c-3.1,0-5.9,2.5-5.9,5.9l-6.2,131.7l6.2,85c0.3,3.4,2.8,5.9,5.9,5.9c3.1,0,5.9-2.5,5.9-5.9l7.2-85
		l-7.2-131.7C171.2,293,168.4,290.2,165.3,290.2z"/>
	
		<linearGradient id="SVGID_9_" gradientUnits="userSpaceOnUse" x1="-18.7351" y1="697.7912" x2="-18.7351" y2="696.4583" gradientTransform="matrix(26.1479 0 0 -259.6324 687.2375 181342.6406)">
		<stop  offset="0" style="stop-color:#F6871F"/>
		<stop  offset="0.2393" style="stop-color:#F57E20"/>
		<stop  offset="0.6262" style="stop-color:#F36621"/>
		<stop  offset="1" style="stop-color:#F04923"/>
	</linearGradient>
	<path class="st8" d="M203.9,512.7l6.5-84.7l-6.5-161.9c-0.3-3.7-3.1-6.5-6.8-6.5c-3.7,0-6.5,2.8-6.8,6.5l-5.9,161.9l5.9,84.7
		c0,3.7,3.1,6.5,6.8,6.5C200.8,519.6,203.6,516.5,203.9,512.7z"/>
	
		<linearGradient id="SVGID_10_" gradientUnits="userSpaceOnUse" x1="-18.851" y1="697.4956" x2="-18.851" y2="696.4225" gradientTransform="matrix(30.8171 0 0 -322.4903 977.6655 225108.9844)">
		<stop  offset="0" style="stop-color:#F6871F"/>
		<stop  offset="0.2393" style="stop-color:#F57E20"/>
		<stop  offset="0.6262" style="stop-color:#F36621"/>
		<stop  offset="1" style="stop-color:#F04923"/>
	</linearGradient>
	<path class="st9" d="M402.2,198c-1.6-0.9-3.4-1.6-5.6-1.6c-2.5,0-5,0.9-6.8,2.5c-2.5,1.9-4,5-4,8.4v1.2l-4.4,219.8l2.2,40.5
		l2.2,39.5c0,5.9,5,10.6,10.9,10.6c5.9,0,10.6-5,10.9-10.9l4.7-80l-4.7-220.7C407.2,203.3,405.3,199.9,402.2,198z"/>
	
		<linearGradient id="SVGID_11_" gradientUnits="userSpaceOnUse" x1="-18.4467" y1="699.9766" x2="-18.4467" y2="696.2953" gradientTransform="matrix(18.9883 0 0 -94.0078 359.7665 65976.7031)">
		<stop  offset="0" style="stop-color:#F6871F"/>
		<stop  offset="0.2393" style="stop-color:#F57E20"/>
		<stop  offset="0.6262" style="stop-color:#F36621"/>
		<stop  offset="1" style="stop-color:#F04923"/>
	</linearGradient>
	<path class="st10" d="M9,474.4c1.6,0,2.8-1.2,3.1-3.1l6.8-43.6l-6.8-44.2c-0.3-1.9-1.6-3.1-3.1-3.1s-3.1,1.2-3.1,3.1L0,427.8
		l5.9,43.6C5.9,473.2,7.5,474.4,9,474.4z"/>
	
		<linearGradient id="SVGID_12_" gradientUnits="userSpaceOnUse" x1="-18.6546" y1="698.8092" x2="-18.6546" y2="696.4688" gradientTransform="matrix(23.6576 0 0 -147.8599 480.5448 103499.3203)">
		<stop  offset="0" style="stop-color:#F6871F"/>
		<stop  offset="0.2393" style="stop-color:#F57E20"/>
		<stop  offset="0.6262" style="stop-color:#F36621"/>
		<stop  offset="1" style="stop-color:#F04923"/>
	</linearGradient>
	<path class="st11" d="M38.6,500.9c1.6,0,3.1-1.2,3.4-3.1l9-70l-9-71.6c-0.3-1.9-1.6-3.1-3.4-3.1c-1.6,0-3.1,1.2-3.4,3.1l-7.8,71.6
		l7.8,70C35.5,499.7,36.7,500.9,38.6,500.9z"/>
	
		<linearGradient id="SVGID_13_" gradientUnits="userSpaceOnUse" x1="-18.6656" y1="698.4907" x2="-18.6656" y2="696.5125" gradientTransform="matrix(23.9689 0 0 -174.9416 517.5875 122368.5312)">
		<stop  offset="0" style="stop-color:#F6871F"/>
		<stop  offset="0.2393" style="stop-color:#F57E20"/>
		<stop  offset="0.6262" style="stop-color:#F36621"/>
		<stop  offset="1" style="stop-color:#F04923"/>
	</linearGradient>
	<path class="st12" d="M69.7,513.7c2.2,0,3.7-1.6,4-4l8.4-81.9l-8.4-85c-0.3-2.2-1.9-4-4-4c-2.2,0-3.7,1.6-4,4l-7.5,85l7.5,81.9
		C66,511.8,67.5,513.7,69.7,513.7z"/>
	
		<linearGradient id="SVGID_14_" gradientUnits="userSpaceOnUse" x1="-19.4474" y1="697.4146" x2="-19.4474" y2="696.4146" gradientTransform="matrix(380.3891 0 0 -345.5253 8004.5918 241147.8125)">
		<stop  offset="0" style="stop-color:#F7941E"/>
		<stop  offset="0" style="stop-color:#F68B1F"/>
		<stop  offset="0" style="stop-color:#F6871F"/>
		<stop  offset="0.2402" style="stop-color:#F57E20"/>
		<stop  offset="0.6306" style="stop-color:#F36621"/>
		<stop  offset="1" style="stop-color:#F04923"/>
	</linearGradient>
	<path class="st13" d="M698.8,323.5c-13.4,0-26.1,2.8-38,7.5c-7.8-88.1-81.9-157.5-172.1-157.5c-22.1,0-43.6,4.4-62.6,11.8
		c-7.5,2.8-9.3,5.9-9.3,11.5v311c0,5.9,4.7,10.6,10.6,11.2h271.8c54.2,0,98.1-43.3,98.1-97.4C796.9,367.4,753,323.5,698.8,323.5z"/>
</g>
</svg>
